<?xml version="1.0" encoding="utf-8"?>
<!-- Generator: Adobe Illustrator 15.1.0, SVG Export Plug-In . SVG Version: 6.00 Build 0)  -->
<!DOCTYPE svg PUBLIC "-//W3C//DTD SVG 1.1//EN" "http://www.w3.org/Graphics/SVG/1.1/DTD/svg11.dtd">
<svg version="1.1" id="Layer_1" xmlns="http://www.w3.org/2000/svg" xmlns:xlink="http://www.w3.org/1999/xlink" x="0px" y="0px"
	 width="74.8px" height="126.6px" viewBox="0 0 74.8 126.6" enable-background="new 0 0 74.8 126.6" xml:space="preserve">
<g>
	<defs>
		<rect id="SVGID_1_" width="74.8" height="126.6"/>
	</defs>
	<clipPath id="SVGID_2_">
		<use xlink:href="#SVGID_1_"  overflow="visible"/>
	</clipPath>
	<path clip-path="url(#SVGID_2_)" fill="#3A3A3A" d="M64.8,32.8H44.4V21.3c0-5.1,4.1-9.3,9.2-9.3c5.1,0,9.3,4.2,9.3,9.3
		c0,3.3,2.7,6,6,6s6-2.7,6-6C74.8,9.6,65.3,0,53.6,0C41.8,0,32.4,9.6,32.4,21.3v19.5h4V21.3C36.4,11.8,44,4,53.6,4
		c9.6,0,17.3,7.8,17.3,17.3c0,1.1-0.9,2-2,2s-2-0.9-2-2C66.8,14,60.9,8,53.6,8c-7.4,0-13.2,6-13.2,13.3v15.5h24.5
		c3.3,0,5.5,2.9,5.5,6.2v48.5c0,3.3-2.2,6.3-5.5,6.3H53.4v4h11.5c5.5,0,9.5-4.8,9.5-10.3V42.9C74.4,37.4,70.3,32.8,64.8,32.8"/>
	<path clip-path="url(#SVGID_2_)" fill="#3A3A3A" d="M42.1,97.8h11.2V46c0-3-2.4-5.2-5.4-5.2H36.4v50.7
		C36.4,94.7,38.8,97.8,42.1,97.8"/>
	<path clip-path="url(#SVGID_2_)" fill="#3A3A3A" d="M42.1,101.4c-5.5,0-10-4.5-10-10v-51H5.5c-3,0-5.5,2.5-5.5,5.5v75.1
		c0,3,2.5,5.5,5.5,5.5H48c3,0,5.5-2.5,5.5-5.5v-19.7H42.1z M26.7,119.2l-6.6-7.5h13.2L26.7,119.2z"/>
</g>
</svg>
