<?xml version="1.0" encoding="utf-8"?>
<!-- Generator: Adobe Illustrator 15.1.0, SVG Export Plug-In . SVG Version: 6.00 Build 0)  -->
<!DOCTYPE svg PUBLIC "-//W3C//DTD SVG 1.1//EN" "http://www.w3.org/Graphics/SVG/1.1/DTD/svg11.dtd">
<svg version="1.1" id="Layer_1" xmlns="http://www.w3.org/2000/svg" xmlns:xlink="http://www.w3.org/1999/xlink" x="0px" y="0px"
	 width="112px" height="71px" viewBox="0 0 112 71" enable-background="new 0 0 112 71" xml:space="preserve">
<g>
	<defs>
		<rect id="SVGID_1_" y="0" width="112" height="71"/>
	</defs>
	<clipPath id="SVGID_2_">
		<use xlink:href="#SVGID_1_"  overflow="visible"/>
	</clipPath>
	<path clip-path="url(#SVGID_2_)" fill="#3A3A3A" d="M48.9,11.1C48.9,7.2,52.1,4,56,4c3.9,0,7.1,3.2,7.1,7.1c0,0.3,0,0.5,0,0.8
		c1.3,0.2,2.6,0.5,3.9,0.8c0.1-0.5,0.1-1,0.1-1.5C67.1,5,62.1,0,56,0c-6.1,0-11.1,5-11.1,11.1c0,0.5,0,1,0.1,1.5
		c1.3-0.3,2.6-0.6,3.9-0.7C48.9,11.6,48.9,11.4,48.9,11.1"/>
	<path clip-path="url(#SVGID_2_)" fill="#3A3A3A" d="M48.9,11.9c0.4,3.6,3.4,6.4,7.1,6.4c3.7,0,6.7-2.8,7.1-6.4
		c-2.3-0.3-4.7-0.5-7.1-0.5C53.6,11.4,51.2,11.5,48.9,11.9"/>
	<path clip-path="url(#SVGID_2_)" fill="#3A3A3A" d="M103.5,57.4c-0.7-22.3-16-40.1-36.5-44.8c-0.7,5.4-5.4,9.6-11,9.6
		c-5.6,0-10.3-4.2-11-9.6C24.5,17.3,9.1,35,8.4,57.4C3.5,58.7,0,63.2,0,68.6V71h112v-2.5C112,63.2,108.5,58.7,103.5,57.4 M24.7,32
		c4.6-5.2,10.4-9.2,17-11.6c1-0.4,2.2,0.2,2.6,1.2c0.4,1-0.2,2.2-1.2,2.6c-5.9,2.1-11.2,5.7-15.3,10.5c-0.4,0.5-1,0.7-1.5,0.7
		c-0.5,0-0.9-0.2-1.3-0.5C24.1,34.1,24,32.8,24.7,32 M4.1,67c0.9-4,3.8-6,7.3-6h89.3c3.5,0,6.4,2,7.3,6H4.1z"/>
</g>
</svg>
