<?xml version="1.0" encoding="utf-8"?>
<!-- Generator: Adobe Illustrator 15.1.0, SVG Export Plug-In . SVG Version: 6.00 Build 0)  -->
<!DOCTYPE svg PUBLIC "-//W3C//DTD SVG 1.1//EN" "http://www.w3.org/Graphics/SVG/1.1/DTD/svg11.dtd">
<svg version="1.1" id="Layer_1" xmlns="http://www.w3.org/2000/svg" xmlns:xlink="http://www.w3.org/1999/xlink" x="0px" y="0px"
	 width="82px" height="89.4px" viewBox="0 0 82 89.4" enable-background="new 0 0 82 89.4" xml:space="preserve">
<g>
	<defs>
		<rect id="SVGID_1_" width="82" height="89.4"/>
	</defs>
	<clipPath id="SVGID_2_">
		<use xlink:href="#SVGID_1_"  overflow="visible"/>
	</clipPath>
	<path clip-path="url(#SVGID_2_)" fill="#3A3A3A" d="M74.9,6.5H68V2c0-1.1-0.9-2-2-2c-1.1,0-2,0.9-2,2v4.9l-46,0V2c0-1.1-0.9-2-2-2
		s-2,0.9-2,2v4.5H7.1c-4,0-7.1,3.7-7.1,7.7v68c0,4,3.2,7.3,7.2,7.3l67.7,0c4,0,7.2-3.2,7.2-7.2v-68C82,10.2,78.9,6.5,74.9,6.5
		 M14,80.5H8v-8h6V80.5z M14,68.5H8v-7h6V68.5z M14,57.5H8v-7h6V57.5z M14,46.5H8v-8h6V46.5z M14,34.5H8v-7h6V34.5z M24,80.5h-6v-8
		h6V80.5z M24,68.5h-6v-7h6V68.5z M24,57.5h-6v-7h6V57.5z M24,46.5h-6v-8h6V46.5z M34,80.5h-6v-8h6V80.5z M34,57.5h-6v-7h6V57.5z
		 M34,46.5h-6v-8h6V46.5z M34,34.5h-6v-7h6V34.5z M44,80.5h-6v-8h6V80.5z M44,68.5h-6v-7h6V68.5z M44,57.5h-6v-7h6V57.5z M44,46.5
		h-6v-8h6V46.5z M44,34.5h-6v-7h6V34.5z M54,80.5h-6v-8h6V80.5z M54,68.5h-6v-7h6V68.5z M54,46.5h-6v-8h6V46.5z M54,34.5h-6v-7h6
		V34.5z M64,80.5h-6v-8h6V80.5z M64,68.5h-6v-7h6V68.5z M64,57.5h-6v-7h6V57.5z M64,46.5h-6v-8h6V46.5z M64,34.5h-6v-7h6V34.5z
		 M74,80.5h-6v-8h6V80.5z M74,68.5h-6v-7h6V68.5z M74,57.5h-6v-7h6V57.5z M74,46.5h-6v-8h6V46.5z M74,34.5h-6v-7h6V34.5z"/>
</g>
</svg>
