<?xml version="1.0" encoding="utf-8"?>
<!-- Generator: Adobe Illustrator 15.1.0, SVG Export Plug-In . SVG Version: 6.00 Build 0)  -->
<!DOCTYPE svg PUBLIC "-//W3C//DTD SVG 1.1//EN" "http://www.w3.org/Graphics/SVG/1.1/DTD/svg11.dtd">
<svg version="1.1" id="Layer_1" xmlns="http://www.w3.org/2000/svg" xmlns:xlink="http://www.w3.org/1999/xlink" x="0px" y="0px"
	 width="100px" height="98.6px" viewBox="0 0 100 98.6" enable-background="new 0 0 100 98.6" xml:space="preserve">
<g>
	<defs>
		<rect id="SVGID_1_" width="100" height="98.6"/>
	</defs>
	<clipPath id="SVGID_2_">
		<use xlink:href="#SVGID_1_"  overflow="visible"/>
	</clipPath>
	<path clip-path="url(#SVGID_2_)" fill="#3B3B3B" d="M97.9,86.9c-1.7-2-3-3.6-4-6.5c-2.1-7.8,0.4-16.7,0.4-16.7l0,0
		c1.6-4.8,2.5-10,2.5-15.3C96.8,21.7,75.1,0,48.4,0C21.7,0,0,21.5,0,48.2c0,20.7,13,38.1,31.2,45.1h0c0,0,0.1,0.2,0.3,0.3
		c2.4,0.9,4.9,1.7,7.4,2.2c9.9,2.2,28.9,4.8,55.5,0.4C101,95,101.2,90.7,97.9,86.9 M50,69.4c-2.3,0-4.1-1.8-4.1-4.1s1.8-4.1,4.1-4.1
		c2.3,0,4.1,1.8,4.1,4.1S52.3,69.4,50,69.4 M56.6,51.1c-1.1,0.7-2.6,1.3-3.6,1.6v1.6c0,1.8-1.2,3.2-3,3.2c-1.8,0-3-1.4-3-3.2v-4.4
		c0-1.8,1.3-3.2,3.1-3.2c1.1,0,2.2-0.3,3.1-1c1.5-1,2.4-2.8,2.4-4.6c0-3.1-2.5-5.6-5.6-5.6c-3.1,0-5.6,2.5-5.6,5.6
		c0,1.8-1.4,3.2-3.2,3.2c-1.8,0-3.2-1.4-3.2-3.2c0-6.6,5.4-12,12-12c6.6,0,11.9,5.4,11.9,12C61.9,45.1,59.9,48.8,56.6,51.1"/>
</g>
</svg>
