<?xml version="1.0" encoding="utf-8"?>
<!-- Generator: Adobe Illustrator 15.1.0, SVG Export Plug-In . SVG Version: 6.00 Build 0)  -->
<!DOCTYPE svg PUBLIC "-//W3C//DTD SVG 1.1//EN" "http://www.w3.org/Graphics/SVG/1.1/DTD/svg11.dtd">
<svg version="1.1" id="Layer_1" xmlns="http://www.w3.org/2000/svg" xmlns:xlink="http://www.w3.org/1999/xlink" x="0px" y="0px"
	 width="79.5px" height="61.9px" viewBox="0 0 79.5 61.9" enable-background="new 0 0 79.5 61.9" xml:space="preserve">
<g>
	<path fill="#FFFFFF" d="M79.5,8.2c0,0.4-0.3,0.7-0.7,0.7H0.7C0.3,8.8,0,8.5,0,8.2V0.7C0,0.3,0.3,0,0.7,0h78.2
		c0.4,0,0.7,0.3,0.7,0.7V8.2z"/>
	<path fill="#FFFFFF" d="M28.3,49.2c2.7-4.8,0.1-8.6,0.1-8.6c17.5,10.8,7.4,19.8,5.4,21.3h0.1c2.4-1.2,15.4-8.4,2.5-20.2
		c0,0-15.7-12.1,7.5-26.8H6.8c-0.4,0-0.7,0.3-0.7,0.7v45.7c0,0.4,0.3,0.7,0.7,0.7h23.3C22.3,60.2,27.8,50.2,28.3,49.2"/>
	<path fill="#FFFFFF" d="M28.3,49.2c2.7-4.8,0.1-8.6,0.1-8.6c17.5,10.8,7.4,19.8,5.4,21.3h0.1c2.4-1.2,15.4-8.4,2.5-20.2
		c0,0-15.7-12.1,7.5-26.8H6.8c-0.4,0-0.7,0.3-0.7,0.7v45.7c0,0.4,0.3,0.7,0.7,0.7h23.3C22.3,60.2,27.8,50.2,28.3,49.2"/>
	<path fill="#FFFFFF" d="M72.7,14.9H44.4c-2.3,2.5-7.5,10.2,4,21.9c0,0,19.9,19.5-2.4,25.2h26.7c0.4,0,0.7-0.3,0.7-0.7V15.5
		C73.3,15.2,73.1,14.9,72.7,14.9"/>
</g>
</svg>
