<?xml version="1.0" encoding="utf-8"?>
<!-- Generator: Adobe Illustrator 15.1.0, SVG Export Plug-In . SVG Version: 6.00 Build 0)  -->
<!DOCTYPE svg PUBLIC "-//W3C//DTD SVG 1.1//EN" "http://www.w3.org/Graphics/SVG/1.1/DTD/svg11.dtd">
<svg version="1.1" id="Layer_1" xmlns="http://www.w3.org/2000/svg" xmlns:xlink="http://www.w3.org/1999/xlink" x="0px" y="0px"
	 width="79.4px" height="61.9px" viewBox="0 0 79.4 61.9" enable-background="new 0 0 79.4 61.9" xml:space="preserve">
<g>
	<path fill="#1C99AD" d="M0,53.8c0-0.4,0.3-0.7,0.7-0.7h78c0.4,0,0.7,0.3,0.7,0.7v7.5c0,0.4-0.3,0.7-0.7,0.7h-78
		c-0.4,0-0.7-0.3-0.7-0.7V53.8z"/>
	<path fill="#1C99AD" d="M72.6,0H30.5C49.4,14.4,56,31.2,56,31.2c4,9.3-1.5,14.9-8.2,15.9h24.8c0.4,0,0.7-0.3,0.7-0.7V0.7
		C73.3,0.3,73,0,72.6,0"/>
	<path fill="#1C99AD" d="M26.1,40.3c0,0-0.2-2.5,2.2-7.1c0,0,3.3-5.7,3.3-13.8c0,0,5.7,17.2,6,27.7h0.1c4.8-18.3-6.3-44.8-7.3-47
		H6.7C6.4,0,6.1,0.3,6.1,0.7v45.7c0,0.4,0.3,0.7,0.7,0.7H33C29.4,46.6,25.9,44.2,26.1,40.3"/>
</g>
</svg>
