<?xml version="1.0" encoding="utf-8"?>
<!-- Generator: Adobe Illustrator 15.1.0, SVG Export Plug-In . SVG Version: 6.00 Build 0)  -->
<!DOCTYPE svg PUBLIC "-//W3C//DTD SVG 1.1//EN" "http://www.w3.org/Graphics/SVG/1.1/DTD/svg11.dtd">
<svg version="1.1" id="Layer_1" xmlns="http://www.w3.org/2000/svg" xmlns:xlink="http://www.w3.org/1999/xlink" x="0px" y="0px"
	 width="251.1px" height="300.5px" viewBox="0 0 251.1 300.5" enable-background="new 0 0 251.1 300.5" xml:space="preserve">
<g>
	<defs>
		<rect id="SVGID_1_" width="251.1" height="300.5"/>
	</defs>
	<clipPath id="SVGID_2_">
		<use xlink:href="#SVGID_1_"  overflow="visible"/>
	</clipPath>
	<path clip-path="url(#SVGID_2_)" fill="#3B3B3B" d="M55.8,0c3.1,0,5.5,2.5,5.5,5.5c0,3.1-2.5,5.5-5.5,5.5c-3.1,0-5.5-2.5-5.5-5.5
		C50.2,2.5,52.7,0,55.8,0"/>
	<path clip-path="url(#SVGID_2_)" fill="#3B3B3B" d="M65,29c0,2-1.6,3.6-3.6,3.6H50.1c-2,0-3.6-1.6-3.6-3.6V16.1
		c0-2,1.6-3.6,3.6-3.6h11.4c2,0,3.6,1.6,3.6,3.6L65,29L65,29z"/>
	<path clip-path="url(#SVGID_2_)" fill="#3B3B3B" d="M60.6,51.3c0,1.5-1.2,2.7-2.7,2.7h-4.2c-1.5,0-2.7-1.2-2.7-2.7V32.7
		c0-1.5,1.2-2.7,2.7-2.7h4.2c1.5,0,2.7,1.2,2.7,2.7V51.3"/>
	<path clip-path="url(#SVGID_2_)" fill="#3B3B3B" d="M79,0c3.1,0,5.5,2.5,5.5,5.5c0,3.1-2.5,5.5-5.5,5.5c-3.1,0-5.5-2.5-5.5-5.5
		C73.5,2.5,76,0,79,0"/>
	<path clip-path="url(#SVGID_2_)" fill="#3B3B3B" d="M88.3,29c0,2-1.6,3.6-3.6,3.6H73.3c-2,0-3.6-1.6-3.6-3.6V16.1
		c0-2,1.6-3.6,3.6-3.6h11.4c2,0,3.6,1.6,3.6,3.6V29z"/>
	<path clip-path="url(#SVGID_2_)" fill="#3B3B3B" d="M83.8,51.3c0,1.5-1.2,2.7-2.7,2.7h-4.2c-1.5,0-2.7-1.2-2.7-2.7V32.7
		c0-1.5,1.2-2.7,2.7-2.7h4.2c1.5,0,2.7,1.2,2.7,2.7V51.3z"/>
	<path clip-path="url(#SVGID_2_)" fill="#3B3B3B" d="M102.3,0c3.1,0,5.5,2.5,5.5,5.5c0,3.1-2.5,5.5-5.5,5.5s-5.5-2.5-5.5-5.5
		C96.7,2.5,99.2,0,102.3,0"/>
	<path clip-path="url(#SVGID_2_)" fill="#3B3B3B" d="M111.5,29c0,2-1.6,3.6-3.6,3.6H96.6c-2,0-3.6-1.6-3.6-3.6V16.1
		c0-2,1.6-3.6,3.6-3.6H108c2,0,3.6,1.6,3.6,3.6V29"/>
	<path clip-path="url(#SVGID_2_)" fill="#3B3B3B" d="M107.1,51.3c0,1.5-1.2,2.7-2.7,2.7h-4.2c-1.5,0-2.7-1.2-2.7-2.7V32.7
		c0-1.5,1.2-2.7,2.7-2.7h4.2c1.5,0,2.7,1.2,2.7,2.7V51.3z"/>
	<path clip-path="url(#SVGID_2_)" fill="#3B3B3B" d="M125.5,0c3.1,0,5.5,2.5,5.5,5.5c0,3.1-2.5,5.5-5.5,5.5c-3.1,0-5.5-2.5-5.5-5.5
		C120,2.5,122.5,0,125.5,0"/>
	<path clip-path="url(#SVGID_2_)" fill="#3B3B3B" d="M134.8,29c0,2-1.6,3.6-3.6,3.6h-11.4c-2,0-3.6-1.6-3.6-3.6V16.1
		c0-2,1.6-3.6,3.6-3.6h11.4c2,0,3.6,1.6,3.6,3.6V29z"/>
	<path clip-path="url(#SVGID_2_)" fill="#3B3B3B" d="M130.4,51.3c0,1.5-1.2,2.7-2.7,2.7h-4.2c-1.5,0-2.7-1.2-2.7-2.7V32.7
		c0-1.5,1.2-2.7,2.7-2.7h4.2c1.5,0,2.7,1.2,2.7,2.7V51.3z"/>
	<path clip-path="url(#SVGID_2_)" fill="#3B3B3B" d="M148.8,0c3.1,0,5.5,2.5,5.5,5.5c0,3.1-2.5,5.5-5.5,5.5c-3.1,0-5.5-2.5-5.5-5.5
		C143.3,2.5,145.7,0,148.8,0"/>
	<path clip-path="url(#SVGID_2_)" fill="#3B3B3B" d="M158,29c0,2-1.6,3.6-3.6,3.6h-11.4c-2,0-3.6-1.6-3.6-3.6V16.1
		c0-2,1.6-3.6,3.6-3.6h11.4c2,0,3.6,1.6,3.6,3.6V29z"/>
	<path clip-path="url(#SVGID_2_)" fill="#3B3B3B" d="M153.6,51.3c0,1.5-1.2,2.7-2.7,2.7h-4.2c-1.5,0-2.7-1.2-2.7-2.7V32.7
		c0-1.5,1.2-2.7,2.7-2.7h4.2c1.5,0,2.7,1.2,2.7,2.7V51.3z"/>
	<path clip-path="url(#SVGID_2_)" fill="#3B3B3B" d="M172.1,0c3.1,0,5.5,2.5,5.5,5.5c0,3.1-2.5,5.5-5.5,5.5s-5.5-2.5-5.5-5.5
		C166.5,2.5,169,0,172.1,0"/>
	<path clip-path="url(#SVGID_2_)" fill="#3B3B3B" d="M181.3,29c0,2-1.6,3.6-3.6,3.6h-11.4c-2,0-3.6-1.6-3.6-3.6V16.1
		c0-2,1.6-3.6,3.6-3.6h11.4c2,0,3.6,1.6,3.6,3.6V29z"/>
	<path clip-path="url(#SVGID_2_)" fill="#3B3B3B" d="M176.9,51.3c0,1.5-1.2,2.7-2.7,2.7H170c-1.5,0-2.7-1.2-2.7-2.7V32.7
		c0-1.5,1.2-2.7,2.7-2.7h4.2c1.5,0,2.7,1.2,2.7,2.7V51.3z"/>
	<path clip-path="url(#SVGID_2_)" fill="#3B3B3B" d="M195.3,0c3.1,0,5.5,2.5,5.5,5.5c0,3.1-2.5,5.5-5.5,5.5c-3.1,0-5.5-2.5-5.5-5.5
		C189.8,2.5,192.3,0,195.3,0"/>
	<path clip-path="url(#SVGID_2_)" fill="#3B3B3B" d="M204.6,29c0,2-1.6,3.6-3.6,3.6h-11.4c-2,0-3.6-1.6-3.6-3.6V16.1
		c0-2,1.6-3.6,3.6-3.6H201c2,0,3.6,1.6,3.6,3.6V29z"/>
	<path clip-path="url(#SVGID_2_)" fill="#3B3B3B" d="M200.1,51.3c0,1.5-1.2,2.7-2.7,2.7h-4.2c-1.5,0-2.7-1.2-2.7-2.7V32.7
		c0-1.5,1.2-2.7,2.7-2.7h4.2c1.5,0,2.7,1.2,2.7,2.7V51.3z"/>
	<path clip-path="url(#SVGID_2_)" fill="#3B3B3B" d="M218.6,0c3.1,0,5.5,2.5,5.5,5.5c0,3.1-2.5,5.5-5.5,5.5c-3.1,0-5.5-2.5-5.5-5.5
		C213,2.5,215.5,0,218.6,0"/>
	<path clip-path="url(#SVGID_2_)" fill="#3B3B3B" d="M227.8,29c0,2-1.6,3.6-3.6,3.6h-11.4c-2,0-3.6-1.6-3.6-3.6V16.1
		c0-2,1.6-3.6,3.6-3.6h11.4c2,0,3.6,1.6,3.6,3.6V29z"/>
	<path clip-path="url(#SVGID_2_)" fill="#3B3B3B" d="M223.4,51.3c0,1.5-1.2,2.7-2.7,2.7h-4.2c-1.5,0-2.7-1.2-2.7-2.7V32.7
		c0-1.5,1.2-2.7,2.7-2.7h4.2c1.5,0,2.7,1.2,2.7,2.7V51.3z"/>
	<path clip-path="url(#SVGID_2_)" fill="#3B3B3B" d="M241.8,0c3.1,0,5.5,2.5,5.5,5.5c0,3.1-2.5,5.5-5.5,5.5c-3.1,0-5.5-2.5-5.5-5.5
		C236.3,2.5,238.8,0,241.8,0"/>
	<path clip-path="url(#SVGID_2_)" fill="#3B3B3B" d="M251.1,29c0,2-1.6,3.6-3.6,3.6h-11.4c-2,0-3.6-1.6-3.6-3.6V16.1
		c0-2,1.6-3.6,3.6-3.6h11.4c2,0,3.6,1.6,3.6,3.6V29z"/>
	<path clip-path="url(#SVGID_2_)" fill="#3B3B3B" d="M246.7,51.3c0,1.5-1.2,2.7-2.7,2.7h-4.2c-1.5,0-2.7-1.2-2.7-2.7V32.7
		c0-1.5,1.2-2.7,2.7-2.7h4.2c1.5,0,2.7,1.2,2.7,2.7V51.3z"/>
	<path clip-path="url(#SVGID_2_)" fill="#3B3B3B" d="M32.5,0C35.6,0,38,2.5,38,5.5c0,3.1-2.5,5.5-5.5,5.5c-3.1,0-5.5-2.5-5.5-5.5
		C27,2.5,29.4,0,32.5,0"/>
	<path clip-path="url(#SVGID_2_)" fill="#3B3B3B" d="M41.7,29c0,2-1.6,3.6-3.6,3.6H26.8c-2,0-3.6-1.6-3.6-3.6V16.1
		c0-2,1.6-3.6,3.6-3.6h11.4c2,0,3.6,1.6,3.6,3.6V29z"/>
	<path clip-path="url(#SVGID_2_)" fill="#3B3B3B" d="M37.3,51.3c0,1.5-1.2,2.7-2.7,2.7h-4.2c-1.5,0-2.7-1.2-2.7-2.7V32.7
		c0-1.5,1.2-2.7,2.7-2.7h4.2c1.5,0,2.7,1.2,2.7,2.7V51.3z"/>
	<path clip-path="url(#SVGID_2_)" fill="#3B3B3B" d="M9.2,0c3.1,0,5.5,2.5,5.5,5.5c0,3.1-2.5,5.5-5.5,5.5c-3.1,0-5.5-2.5-5.5-5.5
		C3.7,2.5,6.2,0,9.2,0"/>
	<path clip-path="url(#SVGID_2_)" fill="#3B3B3B" d="M18.5,29c0,2-1.6,3.6-3.6,3.6H3.6c-2,0-3.6-1.6-3.6-3.6V16.1
		c0-2,1.6-3.6,3.6-3.6h11.4c2,0,3.6,1.6,3.6,3.6V29z"/>
	<path clip-path="url(#SVGID_2_)" fill="#3B3B3B" d="M14.1,51.3c0,1.5-1.2,2.7-2.7,2.7H7.2c-1.5,0-2.7-1.2-2.7-2.7V32.7
		c0-1.5,1.2-2.7,2.7-2.7h4.2c1.5,0,2.7,1.2,2.7,2.7V51.3z"/>
	<path clip-path="url(#SVGID_2_)" fill="#3B3B3B" d="M55.8,246.5c3.1,0,5.5,2.5,5.5,5.5s-2.5,5.5-5.5,5.5c-3.1,0-5.5-2.5-5.5-5.5
		S52.7,246.5,55.8,246.5"/>
	<path clip-path="url(#SVGID_2_)" fill="#3B3B3B" d="M65,275.5c0,2-1.6,3.6-3.6,3.6H50.1c-2,0-3.6-1.6-3.6-3.6v-12.8
		c0-2,1.6-3.6,3.6-3.6h11.4c2,0,3.6,1.6,3.6,3.6L65,275.5L65,275.5z"/>
	<path clip-path="url(#SVGID_2_)" fill="#3B3B3B" d="M60.6,297.8c0,1.5-1.2,2.7-2.7,2.7h-4.2c-1.5,0-2.7-1.2-2.7-2.7v-18.5
		c0-1.5,1.2-2.7,2.7-2.7h4.2c1.5,0,2.7,1.2,2.7,2.7V297.8"/>
	<path clip-path="url(#SVGID_2_)" fill="#3B3B3B" d="M79,246.5c3.1,0,5.5,2.5,5.5,5.5s-2.5,5.5-5.5,5.5c-3.1,0-5.5-2.5-5.5-5.5
		S76,246.5,79,246.5"/>
	<path clip-path="url(#SVGID_2_)" fill="#3B3B3B" d="M88.3,275.5c0,2-1.6,3.6-3.6,3.6H73.3c-2,0-3.6-1.6-3.6-3.6v-12.8
		c0-2,1.6-3.6,3.6-3.6h11.4c2,0,3.6,1.6,3.6,3.6V275.5z"/>
	<path clip-path="url(#SVGID_2_)" fill="#3B3B3B" d="M83.8,297.8c0,1.5-1.2,2.7-2.7,2.7h-4.2c-1.5,0-2.7-1.2-2.7-2.7v-18.5
		c0-1.5,1.2-2.7,2.7-2.7h4.2c1.5,0,2.7,1.2,2.7,2.7V297.8z"/>
	<path clip-path="url(#SVGID_2_)" fill="#3B3B3B" d="M102.3,246.5c3.1,0,5.5,2.5,5.5,5.5s-2.5,5.5-5.5,5.5s-5.5-2.5-5.5-5.5
		S99.2,246.5,102.3,246.5"/>
	<path clip-path="url(#SVGID_2_)" fill="#3B3B3B" d="M111.5,275.5c0,2-1.6,3.6-3.6,3.6H96.6c-2,0-3.6-1.6-3.6-3.6v-12.8
		c0-2,1.6-3.6,3.6-3.6H108c2,0,3.6,1.6,3.6,3.6V275.5"/>
	<path clip-path="url(#SVGID_2_)" fill="#3B3B3B" d="M107.1,297.8c0,1.5-1.2,2.7-2.7,2.7h-4.2c-1.5,0-2.7-1.2-2.7-2.7v-18.5
		c0-1.5,1.2-2.7,2.7-2.7h4.2c1.5,0,2.7,1.2,2.7,2.7V297.8z"/>
	<path clip-path="url(#SVGID_2_)" fill="#3B3B3B" d="M125.5,246.5c3.1,0,5.5,2.5,5.5,5.5c0,3.1-2.5,5.5-5.5,5.5
		c-3.1,0-5.5-2.5-5.5-5.5C120,249,122.5,246.5,125.5,246.5"/>
	<path clip-path="url(#SVGID_2_)" fill="#3B3B3B" d="M134.8,275.5c0,2-1.6,3.6-3.6,3.6h-11.4c-2,0-3.6-1.6-3.6-3.6v-12.8
		c0-2,1.6-3.6,3.6-3.6h11.4c2,0,3.6,1.6,3.6,3.6V275.5z"/>
	<path clip-path="url(#SVGID_2_)" fill="#3B3B3B" d="M130.4,297.8c0,1.5-1.2,2.7-2.7,2.7h-4.2c-1.5,0-2.7-1.2-2.7-2.7v-18.5
		c0-1.5,1.2-2.7,2.7-2.7h4.2c1.5,0,2.7,1.2,2.7,2.7V297.8z"/>
	<path clip-path="url(#SVGID_2_)" fill="#3B3B3B" d="M148.8,246.5c3.1,0,5.5,2.5,5.5,5.5c0,3.1-2.5,5.5-5.5,5.5
		c-3.1,0-5.5-2.5-5.5-5.5C143.3,249,145.7,246.5,148.8,246.5"/>
	<path clip-path="url(#SVGID_2_)" fill="#3B3B3B" d="M158,275.5c0,2-1.6,3.6-3.6,3.6h-11.4c-2,0-3.6-1.6-3.6-3.6v-12.8
		c0-2,1.6-3.6,3.6-3.6h11.4c2,0,3.6,1.6,3.6,3.6V275.5z"/>
	<path clip-path="url(#SVGID_2_)" fill="#3B3B3B" d="M153.6,297.8c0,1.5-1.2,2.7-2.7,2.7h-4.2c-1.5,0-2.7-1.2-2.7-2.7v-18.5
		c0-1.5,1.2-2.7,2.7-2.7h4.2c1.5,0,2.7,1.2,2.7,2.7V297.8z"/>
	<path clip-path="url(#SVGID_2_)" fill="#3B3B3B" d="M172.1,246.5c3.1,0,5.5,2.5,5.5,5.5s-2.5,5.5-5.5,5.5s-5.5-2.5-5.5-5.5
		S169,246.5,172.1,246.5"/>
	<path clip-path="url(#SVGID_2_)" fill="#3B3B3B" d="M181.3,275.5c0,2-1.6,3.6-3.6,3.6h-11.4c-2,0-3.6-1.6-3.6-3.6v-12.8
		c0-2,1.6-3.6,3.6-3.6h11.4c2,0,3.6,1.6,3.6,3.6V275.5z"/>
	<path clip-path="url(#SVGID_2_)" fill="#3B3B3B" d="M176.9,297.8c0,1.5-1.2,2.7-2.7,2.7H170c-1.5,0-2.7-1.2-2.7-2.7v-18.5
		c0-1.5,1.2-2.7,2.7-2.7h4.2c1.5,0,2.7,1.2,2.7,2.7V297.8z"/>
	<path clip-path="url(#SVGID_2_)" fill="#3B3B3B" d="M195.3,246.5c3.1,0,5.5,2.5,5.5,5.5s-2.5,5.5-5.5,5.5c-3.1,0-5.5-2.5-5.5-5.5
		S192.3,246.5,195.3,246.5"/>
	<path clip-path="url(#SVGID_2_)" fill="#3B3B3B" d="M204.6,275.5c0,2-1.6,3.6-3.6,3.6h-11.4c-2,0-3.6-1.6-3.6-3.6v-12.8
		c0-2,1.6-3.6,3.6-3.6H201c2,0,3.6,1.6,3.6,3.6V275.5z"/>
	<path clip-path="url(#SVGID_2_)" fill="#3B3B3B" d="M200.1,297.8c0,1.5-1.2,2.7-2.7,2.7h-4.2c-1.5,0-2.7-1.2-2.7-2.7v-18.5
		c0-1.5,1.2-2.7,2.7-2.7h4.2c1.5,0,2.7,1.2,2.7,2.7V297.8z"/>
	<path clip-path="url(#SVGID_2_)" fill="#3B3B3B" d="M218.6,246.5c3.1,0,5.5,2.5,5.5,5.5c0,3.1-2.5,5.5-5.5,5.5
		c-3.1,0-5.5-2.5-5.5-5.5C213,249,215.5,246.5,218.6,246.5"/>
	<path clip-path="url(#SVGID_2_)" fill="#3B3B3B" d="M227.8,275.5c0,2-1.6,3.6-3.6,3.6h-11.4c-2,0-3.6-1.6-3.6-3.6v-12.8
		c0-2,1.6-3.6,3.6-3.6h11.4c2,0,3.6,1.6,3.6,3.6V275.5z"/>
	<path clip-path="url(#SVGID_2_)" fill="#3B3B3B" d="M223.4,297.8c0,1.5-1.2,2.7-2.7,2.7h-4.2c-1.5,0-2.7-1.2-2.7-2.7v-18.5
		c0-1.5,1.2-2.7,2.7-2.7h4.2c1.5,0,2.7,1.2,2.7,2.7V297.8z"/>
	<path clip-path="url(#SVGID_2_)" fill="#3B3B3B" d="M241.8,246.5c3.1,0,5.5,2.5,5.5,5.5c0,3.1-2.5,5.5-5.5,5.5
		c-3.1,0-5.5-2.5-5.5-5.5C236.3,249,238.8,246.5,241.8,246.5"/>
	<path clip-path="url(#SVGID_2_)" fill="#3B3B3B" d="M251.1,275.5c0,2-1.6,3.6-3.6,3.6h-11.4c-2,0-3.6-1.6-3.6-3.6v-12.8
		c0-2,1.6-3.6,3.6-3.6h11.4c2,0,3.6,1.6,3.6,3.6V275.5z"/>
	<path clip-path="url(#SVGID_2_)" fill="#3B3B3B" d="M246.7,297.8c0,1.5-1.2,2.7-2.7,2.7h-4.2c-1.5,0-2.7-1.2-2.7-2.7v-18.5
		c0-1.5,1.2-2.7,2.7-2.7h4.2c1.5,0,2.7,1.2,2.7,2.7V297.8z"/>
	<path clip-path="url(#SVGID_2_)" fill="#3B3B3B" d="M32.5,246.5c3.1,0,5.5,2.5,5.5,5.5c0,3.1-2.5,5.5-5.5,5.5
		c-3.1,0-5.5-2.5-5.5-5.5C27,249,29.4,246.5,32.5,246.5"/>
	<path clip-path="url(#SVGID_2_)" fill="#3B3B3B" d="M41.7,275.5c0,2-1.6,3.6-3.6,3.6H26.8c-2,0-3.6-1.6-3.6-3.6v-12.8
		c0-2,1.6-3.6,3.6-3.6h11.4c2,0,3.6,1.6,3.6,3.6V275.5z"/>
	<path clip-path="url(#SVGID_2_)" fill="#3B3B3B" d="M37.3,297.8c0,1.5-1.2,2.7-2.7,2.7h-4.2c-1.5,0-2.7-1.2-2.7-2.7v-18.5
		c0-1.5,1.2-2.7,2.7-2.7h4.2c1.5,0,2.7,1.2,2.7,2.7V297.8z"/>
	<path clip-path="url(#SVGID_2_)" fill="#3B3B3B" d="M9.2,246.5c3.1,0,5.5,2.5,5.5,5.5c0,3.1-2.5,5.5-5.5,5.5
		c-3.1,0-5.5-2.5-5.5-5.5C3.7,249,6.2,246.5,9.2,246.5"/>
	<path clip-path="url(#SVGID_2_)" fill="#3B3B3B" d="M18.5,275.5c0,2-1.6,3.6-3.6,3.6H3.6c-2,0-3.6-1.6-3.6-3.6v-12.8
		c0-2,1.6-3.6,3.6-3.6h11.4c2,0,3.6,1.6,3.6,3.6V275.5z"/>
	<path clip-path="url(#SVGID_2_)" fill="#3B3B3B" d="M14.1,297.8c0,1.5-1.2,2.7-2.7,2.7H7.2c-1.5,0-2.7-1.2-2.7-2.7v-18.5
		c0-1.5,1.2-2.7,2.7-2.7h4.2c1.5,0,2.7,1.2,2.7,2.7V297.8z"/>
	<path clip-path="url(#SVGID_2_)" fill="#3B3B3B" d="M44.1,61.6c3.1,0,5.5,2.5,5.5,5.5c0,3.1-2.5,5.5-5.5,5.5s-5.5-2.5-5.5-5.5
		C38.6,64.1,41.1,61.6,44.1,61.6"/>
	<path clip-path="url(#SVGID_2_)" fill="#3B3B3B" d="M53.4,90.6c0,2-1.6,3.6-3.6,3.6H38.4c-2,0-3.6-1.6-3.6-3.6V77.8
		c0-2,1.6-3.6,3.6-3.6h11.4c2,0,3.6,1.6,3.6,3.6L53.4,90.6L53.4,90.6z"/>
	<path clip-path="url(#SVGID_2_)" fill="#3B3B3B" d="M49,112.9c0,1.5-1.2,2.7-2.7,2.7H42c-1.5,0-2.7-1.2-2.7-2.7V94.4
		c0-1.5,1.2-2.7,2.7-2.7h4.2c1.5,0,2.7,1.2,2.7,2.7V112.9"/>
	<path clip-path="url(#SVGID_2_)" fill="#3B3B3B" d="M67.4,61.6c3.1,0,5.5,2.5,5.5,5.5c0,3.1-2.5,5.5-5.5,5.5s-5.5-2.5-5.5-5.5
		C61.9,64.1,64.3,61.6,67.4,61.6"/>
	<path clip-path="url(#SVGID_2_)" fill="#3B3B3B" d="M76.6,90.6c0,2-1.6,3.6-3.6,3.6H61.7c-2,0-3.6-1.6-3.6-3.6V77.8
		c0-2,1.6-3.6,3.6-3.6h11.4c2,0,3.6,1.6,3.6,3.6V90.6z"/>
	<path clip-path="url(#SVGID_2_)" fill="#3B3B3B" d="M72.2,112.9c0,1.5-1.2,2.7-2.7,2.7h-4.2c-1.5,0-2.7-1.2-2.7-2.7V94.4
		c0-1.5,1.2-2.7,2.7-2.7h4.2c1.5,0,2.7,1.2,2.7,2.7V112.9z"/>
	<path clip-path="url(#SVGID_2_)" fill="#3B3B3B" d="M90.6,61.6c3.1,0,5.5,2.5,5.5,5.5c0,3.1-2.5,5.5-5.5,5.5s-5.5-2.5-5.5-5.5
		C85.1,64.1,87.6,61.6,90.6,61.6"/>
	<path clip-path="url(#SVGID_2_)" fill="#3B3B3B" d="M99.9,90.6c0,2-1.6,3.6-3.6,3.6H85c-2,0-3.6-1.6-3.6-3.6V77.8
		c0-2,1.6-3.6,3.6-3.6h11.4c2,0,3.6,1.6,3.6,3.6V90.6z"/>
	<path clip-path="url(#SVGID_2_)" fill="#3B3B3B" d="M95.5,112.9c0,1.5-1.2,2.7-2.7,2.7h-4.2c-1.5,0-2.7-1.2-2.7-2.7V94.4
		c0-1.5,1.2-2.7,2.7-2.7h4.2c1.5,0,2.7,1.2,2.7,2.7V112.9z"/>
	<path clip-path="url(#SVGID_2_)" fill="#3B3B3B" d="M113.9,61.6c3.1,0,5.5,2.5,5.5,5.5s-2.5,5.5-5.5,5.5c-3.1,0-5.5-2.5-5.5-5.5
		S110.9,61.6,113.9,61.6"/>
	<path clip-path="url(#SVGID_2_)" fill="#3B3B3B" d="M123.2,90.6c0,2-1.6,3.6-3.6,3.6h-11.4c-2,0-3.6-1.6-3.6-3.6V77.8
		c0-2,1.6-3.6,3.6-3.6h11.4c2,0,3.6,1.6,3.6,3.6V90.6z"/>
	<path clip-path="url(#SVGID_2_)" fill="#3B3B3B" d="M118.7,112.9c0,1.5-1.2,2.7-2.7,2.7h-4.2c-1.5,0-2.7-1.2-2.7-2.7V94.4
		c0-1.5,1.2-2.7,2.7-2.7h4.2c1.5,0,2.7,1.2,2.7,2.7V112.9z"/>
	<path clip-path="url(#SVGID_2_)" fill="#3B3B3B" d="M137.2,61.6c3.1,0,5.5,2.5,5.5,5.5s-2.5,5.5-5.5,5.5c-3.1,0-5.5-2.5-5.5-5.5
		S134.1,61.6,137.2,61.6"/>
	<path clip-path="url(#SVGID_2_)" fill="#3B3B3B" d="M146.4,90.6c0,2-1.6,3.6-3.6,3.6h-11.4c-2,0-3.6-1.6-3.6-3.6V77.8
		c0-2,1.6-3.6,3.6-3.6h11.4c2,0,3.6,1.6,3.6,3.6V90.6z"/>
	<path clip-path="url(#SVGID_2_)" fill="#3B3B3B" d="M142,112.9c0,1.5-1.2,2.7-2.7,2.7h-4.2c-1.5,0-2.7-1.2-2.7-2.7V94.4
		c0-1.5,1.2-2.7,2.7-2.7h4.2c1.5,0,2.7,1.2,2.7,2.7V112.9z"/>
	<path clip-path="url(#SVGID_2_)" fill="#3B3B3B" d="M160.4,61.6c3.1,0,5.5,2.5,5.5,5.5c0,3.1-2.5,5.5-5.5,5.5
		c-3.1,0-5.5-2.5-5.5-5.5C154.9,64.1,157.4,61.6,160.4,61.6"/>
	<path clip-path="url(#SVGID_2_)" fill="#3B3B3B" d="M169.7,90.6c0,2-1.6,3.6-3.6,3.6h-11.4c-2,0-3.6-1.6-3.6-3.6V77.8
		c0-2,1.6-3.6,3.6-3.6h11.4c2,0,3.6,1.6,3.6,3.6V90.6z"/>
	<path clip-path="url(#SVGID_2_)" fill="#3B3B3B" d="M165.3,112.9c0,1.5-1.2,2.7-2.7,2.7h-4.2c-1.5,0-2.7-1.2-2.7-2.7V94.4
		c0-1.5,1.2-2.7,2.7-2.7h4.2c1.5,0,2.7,1.2,2.7,2.7V112.9z"/>
	<path clip-path="url(#SVGID_2_)" fill="#3B3B3B" d="M183.7,61.6c3.1,0,5.5,2.5,5.5,5.5c0,3.1-2.5,5.5-5.5,5.5
		c-3.1,0-5.5-2.5-5.5-5.5C178.1,64.1,180.6,61.6,183.7,61.6"/>
	<path clip-path="url(#SVGID_2_)" fill="#3B3B3B" d="M192.9,90.6c0,2-1.6,3.6-3.6,3.6H178c-2,0-3.6-1.6-3.6-3.6V77.8
		c0-2,1.6-3.6,3.6-3.6h11.4c2,0,3.6,1.6,3.6,3.6V90.6"/>
	<path clip-path="url(#SVGID_2_)" fill="#3B3B3B" d="M188.5,112.9c0,1.5-1.2,2.7-2.7,2.7h-4.2c-1.5,0-2.7-1.2-2.7-2.7V94.4
		c0-1.5,1.2-2.7,2.7-2.7h4.2c1.5,0,2.7,1.2,2.7,2.7V112.9z"/>
	<path clip-path="url(#SVGID_2_)" fill="#3B3B3B" d="M206.9,61.6c3.1,0,5.5,2.5,5.5,5.5s-2.5,5.5-5.5,5.5c-3.1,0-5.5-2.5-5.5-5.5
		S203.9,61.6,206.9,61.6"/>
	<path clip-path="url(#SVGID_2_)" fill="#3B3B3B" d="M216.2,90.6c0,2-1.6,3.6-3.6,3.6h-11.4c-2,0-3.6-1.6-3.6-3.6V77.8
		c0-2,1.6-3.6,3.6-3.6h11.4c2,0,3.6,1.6,3.6,3.6V90.6z"/>
	<path clip-path="url(#SVGID_2_)" fill="#3B3B3B" d="M211.8,112.9c0,1.5-1.2,2.7-2.7,2.7h-4.2c-1.5,0-2.7-1.2-2.7-2.7V94.4
		c0-1.5,1.2-2.7,2.7-2.7h4.2c1.5,0,2.7,1.2,2.7,2.7V112.9z"/>
	<path clip-path="url(#SVGID_2_)" fill="#3B3B3B" d="M230.2,61.6c3.1,0,5.5,2.5,5.5,5.5s-2.5,5.5-5.5,5.5c-3.1,0-5.5-2.5-5.5-5.5
		S227.1,61.6,230.2,61.6"/>
	<path clip-path="url(#SVGID_2_)" fill="#3B3B3B" d="M239.4,90.6c0,2-1.6,3.6-3.6,3.6h-11.4c-2,0-3.6-1.6-3.6-3.6V77.8
		c0-2,1.6-3.6,3.6-3.6h11.4c2,0,3.6,1.6,3.6,3.6V90.6z"/>
	<path clip-path="url(#SVGID_2_)" fill="#3B3B3B" d="M235,112.9c0,1.5-1.2,2.7-2.7,2.7h-4.2c-1.5,0-2.7-1.2-2.7-2.7V94.4
		c0-1.5,1.2-2.7,2.7-2.7h4.2c1.5,0,2.7,1.2,2.7,2.7V112.9z"/>
	<path clip-path="url(#SVGID_2_)" fill="#3B3B3B" d="M20.9,61.6c3.1,0,5.5,2.5,5.5,5.5s-2.5,5.5-5.5,5.5s-5.5-2.5-5.5-5.5
		S17.8,61.6,20.9,61.6"/>
	<path clip-path="url(#SVGID_2_)" fill="#3B3B3B" d="M30.1,90.6c0,2-1.6,3.6-3.6,3.6H15.2c-2,0-3.6-1.6-3.6-3.6V77.8
		c0-2,1.6-3.6,3.6-3.6h11.4c2,0,3.6,1.6,3.6,3.6V90.6z"/>
	<path clip-path="url(#SVGID_2_)" fill="#3B3B3B" d="M25.7,112.9c0,1.5-1.2,2.7-2.7,2.7h-4.2c-1.5,0-2.7-1.2-2.7-2.7V94.4
		c0-1.5,1.2-2.7,2.7-2.7H23c1.5,0,2.7,1.2,2.7,2.7V112.9z"/>
	<path clip-path="url(#SVGID_2_)" fill="#3B3B3B" d="M55.8,123.3c3.1,0,5.5,2.5,5.5,5.5c0,3.1-2.5,5.5-5.5,5.5
		c-3.1,0-5.5-2.5-5.5-5.5C50.2,125.7,52.7,123.3,55.8,123.3"/>
	<path clip-path="url(#SVGID_2_)" fill="#3B3B3B" d="M65,152.2c0,2-1.6,3.6-3.6,3.6H50.1c-2,0-3.6-1.6-3.6-3.6v-12.8
		c0-2,1.6-3.6,3.6-3.6h11.4c2,0,3.6,1.6,3.6,3.6L65,152.2L65,152.2z"/>
	<path clip-path="url(#SVGID_2_)" fill="#3B3B3B" d="M60.6,174.5c0,1.5-1.2,2.7-2.7,2.7h-4.2c-1.5,0-2.7-1.2-2.7-2.7V156
		c0-1.5,1.2-2.7,2.7-2.7h4.2c1.5,0,2.7,1.2,2.7,2.7V174.5"/>
	<path clip-path="url(#SVGID_2_)" fill="#3B3B3B" d="M79,123.3c3.1,0,5.5,2.5,5.5,5.5c0,3.1-2.5,5.5-5.5,5.5c-3.1,0-5.5-2.5-5.5-5.5
		C73.5,125.7,76,123.3,79,123.3"/>
	<path clip-path="url(#SVGID_2_)" fill="#3B3B3B" d="M88.3,152.2c0,2-1.6,3.6-3.6,3.6H73.3c-2,0-3.6-1.6-3.6-3.6v-12.8
		c0-2,1.6-3.6,3.6-3.6h11.4c2,0,3.6,1.6,3.6,3.6V152.2z"/>
	<path clip-path="url(#SVGID_2_)" fill="#3B3B3B" d="M83.8,174.5c0,1.5-1.2,2.7-2.7,2.7h-4.2c-1.5,0-2.7-1.2-2.7-2.7V156
		c0-1.5,1.2-2.7,2.7-2.7h4.2c1.5,0,2.7,1.2,2.7,2.7V174.5z"/>
	<path clip-path="url(#SVGID_2_)" fill="#3B3B3B" d="M102.3,123.3c3.1,0,5.5,2.5,5.5,5.5c0,3.1-2.5,5.5-5.5,5.5s-5.5-2.5-5.5-5.5
		C96.7,125.7,99.2,123.3,102.3,123.3"/>
	<path clip-path="url(#SVGID_2_)" fill="#3B3B3B" d="M111.5,152.2c0,2-1.6,3.6-3.6,3.6H96.6c-2,0-3.6-1.6-3.6-3.6v-12.8
		c0-2,1.6-3.6,3.6-3.6H108c2,0,3.6,1.6,3.6,3.6V152.2"/>
	<path clip-path="url(#SVGID_2_)" fill="#3B3B3B" d="M107.1,174.5c0,1.5-1.2,2.7-2.7,2.7h-4.2c-1.5,0-2.7-1.2-2.7-2.7V156
		c0-1.5,1.2-2.7,2.7-2.7h4.2c1.5,0,2.7,1.2,2.7,2.7V174.5z"/>
	<path clip-path="url(#SVGID_2_)" fill="#3B3B3B" d="M125.5,123.3c3.1,0,5.5,2.5,5.5,5.5s-2.5,5.5-5.5,5.5c-3.1,0-5.5-2.5-5.5-5.5
		S122.5,123.3,125.5,123.3"/>
	<path clip-path="url(#SVGID_2_)" fill="#3B3B3B" d="M134.8,152.2c0,2-1.6,3.6-3.6,3.6h-11.4c-2,0-3.6-1.6-3.6-3.6v-12.8
		c0-2,1.6-3.6,3.6-3.6h11.4c2,0,3.6,1.6,3.6,3.6V152.2z"/>
	<path clip-path="url(#SVGID_2_)" fill="#3B3B3B" d="M130.4,174.5c0,1.5-1.2,2.7-2.7,2.7h-4.2c-1.5,0-2.7-1.2-2.7-2.7V156
		c0-1.5,1.2-2.7,2.7-2.7h4.2c1.5,0,2.7,1.2,2.7,2.7V174.5z"/>
	<path clip-path="url(#SVGID_2_)" fill="#3B3B3B" d="M148.8,123.3c3.1,0,5.5,2.5,5.5,5.5s-2.5,5.5-5.5,5.5c-3.1,0-5.5-2.5-5.5-5.5
		S145.7,123.3,148.8,123.3"/>
	<path clip-path="url(#SVGID_2_)" fill="#3B3B3B" d="M158,152.2c0,2-1.6,3.6-3.6,3.6h-11.4c-2,0-3.6-1.6-3.6-3.6v-12.8
		c0-2,1.6-3.6,3.6-3.6h11.4c2,0,3.6,1.6,3.6,3.6V152.2z"/>
	<path clip-path="url(#SVGID_2_)" fill="#3B3B3B" d="M153.6,174.5c0,1.5-1.2,2.7-2.7,2.7h-4.2c-1.5,0-2.7-1.2-2.7-2.7V156
		c0-1.5,1.2-2.7,2.7-2.7h4.2c1.5,0,2.7,1.2,2.7,2.7V174.5z"/>
	<path clip-path="url(#SVGID_2_)" fill="#3B3B3B" d="M172.1,123.3c3.1,0,5.5,2.5,5.5,5.5c0,3.1-2.5,5.5-5.5,5.5s-5.5-2.5-5.5-5.5
		C166.5,125.7,169,123.3,172.1,123.3"/>
	<path clip-path="url(#SVGID_2_)" fill="#3B3B3B" d="M181.3,152.2c0,2-1.6,3.6-3.6,3.6h-11.4c-2,0-3.6-1.6-3.6-3.6v-12.8
		c0-2,1.6-3.6,3.6-3.6h11.4c2,0,3.6,1.6,3.6,3.6V152.2z"/>
	<path clip-path="url(#SVGID_2_)" fill="#3B3B3B" d="M176.9,174.5c0,1.5-1.2,2.7-2.7,2.7H170c-1.5,0-2.7-1.2-2.7-2.7V156
		c0-1.5,1.2-2.7,2.7-2.7h4.2c1.5,0,2.7,1.2,2.7,2.7V174.5z"/>
	<path clip-path="url(#SVGID_2_)" fill="#3B3B3B" d="M195.3,123.3c3.1,0,5.5,2.5,5.5,5.5c0,3.1-2.5,5.5-5.5,5.5
		c-3.1,0-5.5-2.5-5.5-5.5C189.8,125.7,192.3,123.3,195.3,123.3"/>
	<path clip-path="url(#SVGID_2_)" fill="#3B3B3B" d="M204.6,152.2c0,2-1.6,3.6-3.6,3.6h-11.4c-2,0-3.6-1.6-3.6-3.6v-12.8
		c0-2,1.6-3.6,3.6-3.6H201c2,0,3.6,1.6,3.6,3.6V152.2z"/>
	<path clip-path="url(#SVGID_2_)" fill="#3B3B3B" d="M200.1,174.5c0,1.5-1.2,2.7-2.7,2.7h-4.2c-1.5,0-2.7-1.2-2.7-2.7V156
		c0-1.5,1.2-2.7,2.7-2.7h4.2c1.5,0,2.7,1.2,2.7,2.7V174.5z"/>
	<path clip-path="url(#SVGID_2_)" fill="#3B3B3B" d="M218.6,123.3c3.1,0,5.5,2.5,5.5,5.5s-2.5,5.5-5.5,5.5c-3.1,0-5.5-2.5-5.5-5.5
		S215.5,123.3,218.6,123.3"/>
	<path clip-path="url(#SVGID_2_)" fill="#3B3B3B" d="M227.8,152.2c0,2-1.6,3.6-3.6,3.6h-11.4c-2,0-3.6-1.6-3.6-3.6v-12.8
		c0-2,1.6-3.6,3.6-3.6h11.4c2,0,3.6,1.6,3.6,3.6V152.2z"/>
	<path clip-path="url(#SVGID_2_)" fill="#3B3B3B" d="M223.4,174.5c0,1.5-1.2,2.7-2.7,2.7h-4.2c-1.5,0-2.7-1.2-2.7-2.7V156
		c0-1.5,1.2-2.7,2.7-2.7h4.2c1.5,0,2.7,1.2,2.7,2.7V174.5z"/>
	<path clip-path="url(#SVGID_2_)" fill="#3B3B3B" d="M241.8,123.3c3.1,0,5.5,2.5,5.5,5.5s-2.5,5.5-5.5,5.5c-3.1,0-5.5-2.5-5.5-5.5
		S238.8,123.3,241.8,123.3"/>
	<path clip-path="url(#SVGID_2_)" fill="#3B3B3B" d="M251.1,152.2c0,2-1.6,3.6-3.6,3.6h-11.4c-2,0-3.6-1.6-3.6-3.6v-12.8
		c0-2,1.6-3.6,3.6-3.6h11.4c2,0,3.6,1.6,3.6,3.6V152.2z"/>
	<path clip-path="url(#SVGID_2_)" fill="#3B3B3B" d="M246.7,174.5c0,1.5-1.2,2.7-2.7,2.7h-4.2c-1.5,0-2.7-1.2-2.7-2.7V156
		c0-1.5,1.2-2.7,2.7-2.7h4.2c1.5,0,2.7,1.2,2.7,2.7V174.5z"/>
	<path clip-path="url(#SVGID_2_)" fill="#3B3B3B" d="M32.5,123.3c3.1,0,5.5,2.5,5.5,5.5s-2.5,5.5-5.5,5.5c-3.1,0-5.5-2.5-5.5-5.5
		S29.4,123.3,32.5,123.3"/>
	<path clip-path="url(#SVGID_2_)" fill="#3B3B3B" d="M41.7,152.2c0,2-1.6,3.6-3.6,3.6H26.8c-2,0-3.6-1.6-3.6-3.6v-12.8
		c0-2,1.6-3.6,3.6-3.6h11.4c2,0,3.6,1.6,3.6,3.6V152.2z"/>
	<path clip-path="url(#SVGID_2_)" fill="#3B3B3B" d="M37.3,174.5c0,1.5-1.2,2.7-2.7,2.7h-4.2c-1.5,0-2.7-1.2-2.7-2.7V156
		c0-1.5,1.2-2.7,2.7-2.7h4.2c1.5,0,2.7,1.2,2.7,2.7V174.5z"/>
	<path clip-path="url(#SVGID_2_)" fill="#3B3B3B" d="M9.2,123.3c3.1,0,5.5,2.5,5.5,5.5s-2.5,5.5-5.5,5.5c-3.1,0-5.5-2.5-5.5-5.5
		S6.2,123.3,9.2,123.3"/>
	<path clip-path="url(#SVGID_2_)" fill="#3B3B3B" d="M18.5,152.2c0,2-1.6,3.6-3.6,3.6H3.6c-2,0-3.6-1.6-3.6-3.6v-12.8
		c0-2,1.6-3.6,3.6-3.6h11.4c2,0,3.6,1.6,3.6,3.6V152.2z"/>
	<path clip-path="url(#SVGID_2_)" fill="#3B3B3B" d="M14.1,174.5c0,1.5-1.2,2.7-2.7,2.7H7.2c-1.5,0-2.7-1.2-2.7-2.7V156
		c0-1.5,1.2-2.7,2.7-2.7h4.2c1.5,0,2.7,1.2,2.7,2.7V174.5z"/>
	<path clip-path="url(#SVGID_2_)" fill="#3B3B3B" d="M44.1,184.9c3.1,0,5.5,2.5,5.5,5.5c0,3.1-2.5,5.5-5.5,5.5s-5.5-2.5-5.5-5.5
		C38.6,187.4,41.1,184.9,44.1,184.9"/>
	<path clip-path="url(#SVGID_2_)" fill="#3B3B3B" d="M53.4,213.9c0,2-1.6,3.6-3.6,3.6H38.4c-2,0-3.6-1.6-3.6-3.6V201
		c0-2,1.6-3.6,3.6-3.6h11.4c2,0,3.6,1.6,3.6,3.6L53.4,213.9L53.4,213.9z"/>
	<path clip-path="url(#SVGID_2_)" fill="#3B3B3B" d="M49,236.2c0,1.5-1.2,2.7-2.7,2.7H42c-1.5,0-2.7-1.2-2.7-2.7v-18.5
		c0-1.5,1.2-2.7,2.7-2.7h4.2c1.5,0,2.7,1.2,2.7,2.7V236.2"/>
	<path clip-path="url(#SVGID_2_)" fill="#3B3B3B" d="M67.4,184.9c3.1,0,5.5,2.5,5.5,5.5c0,3.1-2.5,5.5-5.5,5.5s-5.5-2.5-5.5-5.5
		C61.9,187.4,64.3,184.9,67.4,184.9"/>
	<path clip-path="url(#SVGID_2_)" fill="#3B3B3B" d="M76.6,213.9c0,2-1.6,3.6-3.6,3.6H61.7c-2,0-3.6-1.6-3.6-3.6V201
		c0-2,1.6-3.6,3.6-3.6h11.4c2,0,3.6,1.6,3.6,3.6V213.9z"/>
	<path clip-path="url(#SVGID_2_)" fill="#3B3B3B" d="M72.2,236.2c0,1.5-1.2,2.7-2.7,2.7h-4.2c-1.5,0-2.7-1.2-2.7-2.7v-18.5
		c0-1.5,1.2-2.7,2.7-2.7h4.2c1.5,0,2.7,1.2,2.7,2.7V236.2z"/>
	<path clip-path="url(#SVGID_2_)" fill="#3B3B3B" d="M90.6,184.9c3.1,0,5.5,2.5,5.5,5.5c0,3.1-2.5,5.5-5.5,5.5s-5.5-2.5-5.5-5.5
		C85.1,187.4,87.6,184.9,90.6,184.9"/>
	<path clip-path="url(#SVGID_2_)" fill="#3B3B3B" d="M99.9,213.9c0,2-1.6,3.6-3.6,3.6H85c-2,0-3.6-1.6-3.6-3.6V201
		c0-2,1.6-3.6,3.6-3.6h11.4c2,0,3.6,1.6,3.6,3.6V213.9z"/>
	<path clip-path="url(#SVGID_2_)" fill="#3B3B3B" d="M95.5,236.2c0,1.5-1.2,2.7-2.7,2.7h-4.2c-1.5,0-2.7-1.2-2.7-2.7v-18.5
		c0-1.5,1.2-2.7,2.7-2.7h4.2c1.5,0,2.7,1.2,2.7,2.7V236.2z"/>
	<path clip-path="url(#SVGID_2_)" fill="#3B3B3B" d="M113.9,184.9c3.1,0,5.5,2.5,5.5,5.5c0,3.1-2.5,5.5-5.5,5.5
		c-3.1,0-5.5-2.5-5.5-5.5C108.4,187.4,110.9,184.9,113.9,184.9"/>
	<path clip-path="url(#SVGID_2_)" fill="#3B3B3B" d="M123.2,213.9c0,2-1.6,3.6-3.6,3.6h-11.4c-2,0-3.6-1.6-3.6-3.6V201
		c0-2,1.6-3.6,3.6-3.6h11.4c2,0,3.6,1.6,3.6,3.6V213.9z"/>
	<path clip-path="url(#SVGID_2_)" fill="#3B3B3B" d="M118.7,236.2c0,1.5-1.2,2.7-2.7,2.7h-4.2c-1.5,0-2.7-1.2-2.7-2.7v-18.5
		c0-1.5,1.2-2.7,2.7-2.7h4.2c1.5,0,2.7,1.2,2.7,2.7V236.2z"/>
	<path clip-path="url(#SVGID_2_)" fill="#3B3B3B" d="M137.2,184.9c3.1,0,5.5,2.5,5.5,5.5c0,3.1-2.5,5.5-5.5,5.5
		c-3.1,0-5.5-2.5-5.5-5.5C131.6,187.4,134.1,184.9,137.2,184.9"/>
	<path clip-path="url(#SVGID_2_)" fill="#3B3B3B" d="M146.4,213.9c0,2-1.6,3.6-3.6,3.6h-11.4c-2,0-3.6-1.6-3.6-3.6V201
		c0-2,1.6-3.6,3.6-3.6h11.4c2,0,3.6,1.6,3.6,3.6V213.9z"/>
	<path clip-path="url(#SVGID_2_)" fill="#3B3B3B" d="M142,236.2c0,1.5-1.2,2.7-2.7,2.7h-4.2c-1.5,0-2.7-1.2-2.7-2.7v-18.5
		c0-1.5,1.2-2.7,2.7-2.7h4.2c1.5,0,2.7,1.2,2.7,2.7V236.2z"/>
	<path clip-path="url(#SVGID_2_)" fill="#3B3B3B" d="M160.4,184.9c3.1,0,5.5,2.5,5.5,5.5c0,3.1-2.5,5.5-5.5,5.5
		c-3.1,0-5.5-2.5-5.5-5.5C154.9,187.4,157.4,184.9,160.4,184.9"/>
	<path clip-path="url(#SVGID_2_)" fill="#3B3B3B" d="M169.7,213.9c0,2-1.6,3.6-3.6,3.6h-11.4c-2,0-3.6-1.6-3.6-3.6V201
		c0-2,1.6-3.6,3.6-3.6h11.4c2,0,3.6,1.6,3.6,3.6V213.9z"/>
	<path clip-path="url(#SVGID_2_)" fill="#3B3B3B" d="M165.3,236.2c0,1.5-1.2,2.7-2.7,2.7h-4.2c-1.5,0-2.7-1.2-2.7-2.7v-18.5
		c0-1.5,1.2-2.7,2.7-2.7h4.2c1.5,0,2.7,1.2,2.7,2.7V236.2z"/>
	<path clip-path="url(#SVGID_2_)" fill="#3B3B3B" d="M183.7,184.9c3.1,0,5.5,2.5,5.5,5.5c0,3.1-2.5,5.5-5.5,5.5
		c-3.1,0-5.5-2.5-5.5-5.5C178.1,187.4,180.6,184.9,183.7,184.9"/>
	<path clip-path="url(#SVGID_2_)" fill="#3B3B3B" d="M192.9,213.9c0,2-1.6,3.6-3.6,3.6H178c-2,0-3.6-1.6-3.6-3.6V201
		c0-2,1.6-3.6,3.6-3.6h11.4c2,0,3.6,1.6,3.6,3.6V213.9"/>
	<path clip-path="url(#SVGID_2_)" fill="#3B3B3B" d="M188.5,236.2c0,1.5-1.2,2.7-2.7,2.7h-4.2c-1.5,0-2.7-1.2-2.7-2.7v-18.5
		c0-1.5,1.2-2.7,2.7-2.7h4.2c1.5,0,2.7,1.2,2.7,2.7V236.2z"/>
	<path clip-path="url(#SVGID_2_)" fill="#3B3B3B" d="M206.9,184.9c3.1,0,5.5,2.5,5.5,5.5c0,3.1-2.5,5.5-5.5,5.5
		c-3.1,0-5.5-2.5-5.5-5.5C201.4,187.4,203.9,184.9,206.9,184.9"/>
	<path clip-path="url(#SVGID_2_)" fill="#3B3B3B" d="M216.2,213.9c0,2-1.6,3.6-3.6,3.6h-11.4c-2,0-3.6-1.6-3.6-3.6V201
		c0-2,1.6-3.6,3.6-3.6h11.4c2,0,3.6,1.6,3.6,3.6V213.9z"/>
	<path clip-path="url(#SVGID_2_)" fill="#3B3B3B" d="M211.8,236.2c0,1.5-1.2,2.7-2.7,2.7h-4.2c-1.5,0-2.7-1.2-2.7-2.7v-18.5
		c0-1.5,1.2-2.7,2.7-2.7h4.2c1.5,0,2.7,1.2,2.7,2.7V236.2z"/>
	<path clip-path="url(#SVGID_2_)" fill="#3B3B3B" d="M230.2,184.9c3.1,0,5.5,2.5,5.5,5.5c0,3.1-2.5,5.5-5.5,5.5
		c-3.1,0-5.5-2.5-5.5-5.5C224.7,187.4,227.1,184.9,230.2,184.9"/>
	<path clip-path="url(#SVGID_2_)" fill="#3B3B3B" d="M239.4,213.9c0,2-1.6,3.6-3.6,3.6h-11.4c-2,0-3.6-1.6-3.6-3.6V201
		c0-2,1.6-3.6,3.6-3.6h11.4c2,0,3.6,1.6,3.6,3.6V213.9z"/>
	<path clip-path="url(#SVGID_2_)" fill="#3B3B3B" d="M235,236.2c0,1.5-1.2,2.7-2.7,2.7h-4.2c-1.5,0-2.7-1.2-2.7-2.7v-18.5
		c0-1.5,1.2-2.7,2.7-2.7h4.2c1.5,0,2.7,1.2,2.7,2.7V236.2z"/>
	<path clip-path="url(#SVGID_2_)" fill="#3B3B3B" d="M20.9,184.9c3.1,0,5.5,2.5,5.5,5.5c0,3.1-2.5,5.5-5.5,5.5s-5.5-2.5-5.5-5.5
		C15.3,187.4,17.8,184.9,20.9,184.9"/>
	<path clip-path="url(#SVGID_2_)" fill="#3B3B3B" d="M30.1,213.9c0,2-1.6,3.6-3.6,3.6H15.2c-2,0-3.6-1.6-3.6-3.6V201
		c0-2,1.6-3.6,3.6-3.6h11.4c2,0,3.6,1.6,3.6,3.6V213.9z"/>
	<path clip-path="url(#SVGID_2_)" fill="#3B3B3B" d="M25.7,236.2c0,1.5-1.2,2.7-2.7,2.7h-4.2c-1.5,0-2.7-1.2-2.7-2.7v-18.5
		c0-1.5,1.2-2.7,2.7-2.7H23c1.5,0,2.7,1.2,2.7,2.7V236.2z"/>
</g>
</svg>
