<?xml version="1.0" encoding="utf-8"?>
<!-- Generator: Adobe Illustrator 15.1.0, SVG Export Plug-In . SVG Version: 6.00 Build 0)  -->
<!DOCTYPE svg PUBLIC "-//W3C//DTD SVG 1.1//EN" "http://www.w3.org/Graphics/SVG/1.1/DTD/svg11.dtd">
<svg version="1.1" id="Layer_1" xmlns="http://www.w3.org/2000/svg" xmlns:xlink="http://www.w3.org/1999/xlink" x="0px" y="0px"
	 width="159.6px" height="137.6px" viewBox="0 0 159.6 137.6" enable-background="new 0 0 159.6 137.6" xml:space="preserve">
<rect x="60.4" y="10.2" fill="#1C99AD" width="38.8" height="16"/>
<rect x="75.4" fill="#3B3B3B" width="8.8" height="8.8"/>
<rect y="41.3" fill="#3B3B3B" width="8.8" height="8.8"/>
<rect x="10.9" y="41.3" fill="#3B3B3B" width="8.8" height="8.8"/>
<rect x="21.8" y="41.3" fill="#3B3B3B" width="8.8" height="8.8"/>
<rect x="32.7" y="41.3" fill="#3B3B3B" width="8.8" height="8.8"/>
<rect x="59.1" y="41.3" fill="#3B3B3B" width="8.8" height="8.8"/>
<rect x="70" y="41.3" fill="#3B3B3B" width="8.8" height="8.8"/>
<rect x="80.9" y="41.3" fill="#3B3B3B" width="8.8" height="8.8"/>
<rect x="91.8" y="41.3" fill="#3B3B3B" width="8.8" height="8.8"/>
<rect x="118.1" y="41.3" fill="#3B3B3B" width="8.8" height="8.8"/>
<rect x="129.1" y="41.3" fill="#3B3B3B" width="8.8" height="8.8"/>
<rect x="140" y="41.3" fill="#3B3B3B" width="8.8" height="8.8"/>
<rect x="150.9" y="41.3" fill="#3B3B3B" width="8.8" height="8.8"/>
<rect y="58.8" fill="#3B3B3B" width="8.8" height="8.8"/>
<rect x="10.9" y="58.8" fill="#3B3B3B" width="8.8" height="8.8"/>
<rect x="21.8" y="58.8" fill="#3B3B3B" width="8.8" height="8.8"/>
<rect x="32.7" y="58.8" fill="#3B3B3B" width="8.8" height="8.8"/>
<rect x="59.1" y="58.8" fill="#3B3B3B" width="8.8" height="8.8"/>
<rect x="70" y="58.8" fill="#3B3B3B" width="8.8" height="8.8"/>
<rect x="80.9" y="58.8" fill="#3B3B3B" width="8.8" height="8.8"/>
<rect x="91.8" y="58.8" fill="#3B3B3B" width="8.8" height="8.8"/>
<rect x="118.1" y="58.8" fill="#3B3B3B" width="8.8" height="8.8"/>
<rect x="129.1" y="58.8" fill="#3B3B3B" width="8.8" height="8.8"/>
<rect x="140" y="58.8" fill="#3B3B3B" width="8.8" height="8.8"/>
<rect x="150.9" y="58.8" fill="#3B3B3B" width="8.8" height="8.8"/>
<rect y="76.3" fill="#3B3B3B" width="8.8" height="8.8"/>
<rect x="10.9" y="76.3" fill="#3B3B3B" width="8.8" height="8.8"/>
<rect x="21.8" y="76.3" fill="#3B3B3B" width="8.8" height="8.8"/>
<rect x="32.7" y="76.3" fill="#3B3B3B" width="8.8" height="8.8"/>
<rect x="59.1" y="76.3" fill="#3B3B3B" width="8.8" height="8.8"/>
<rect x="70" y="76.3" fill="#3B3B3B" width="8.8" height="8.8"/>
<rect x="80.9" y="76.3" fill="#3B3B3B" width="8.8" height="8.8"/>
<rect x="91.8" y="76.3" fill="#3B3B3B" width="8.8" height="8.8"/>
<rect x="118.1" y="76.3" fill="#3B3B3B" width="8.8" height="8.8"/>
<rect x="129.1" y="76.3" fill="#3B3B3B" width="8.8" height="8.8"/>
<rect x="140" y="76.3" fill="#3B3B3B" width="8.8" height="8.8"/>
<rect x="150.9" y="76.3" fill="#3B3B3B" width="8.8" height="8.8"/>
<rect y="93.8" fill="#3B3B3B" width="8.8" height="8.8"/>
<rect x="10.9" y="93.8" fill="#3B3B3B" width="8.8" height="8.8"/>
<rect x="21.8" y="93.8" fill="#3B3B3B" width="8.8" height="8.8"/>
<rect x="32.7" y="93.8" fill="#3B3B3B" width="8.8" height="8.8"/>
<rect x="59.1" y="93.8" fill="#3B3B3B" width="8.8" height="8.8"/>
<rect x="70" y="93.8" fill="#3B3B3B" width="8.8" height="8.8"/>
<rect x="80.9" y="93.8" fill="#3B3B3B" width="8.8" height="8.8"/>
<rect x="91.8" y="93.8" fill="#3B3B3B" width="8.8" height="8.8"/>
<rect x="118.1" y="93.8" fill="#3B3B3B" width="8.8" height="8.8"/>
<rect x="129.1" y="93.8" fill="#3B3B3B" width="8.8" height="8.8"/>
<rect x="140" y="93.8" fill="#3B3B3B" width="8.8" height="8.8"/>
<rect x="150.9" y="93.8" fill="#3B3B3B" width="8.8" height="8.8"/>
<rect y="111.3" fill="#3B3B3B" width="8.8" height="8.8"/>
<rect x="10.9" y="111.3" fill="#3B3B3B" width="8.8" height="8.8"/>
<rect x="21.8" y="111.3" fill="#3B3B3B" width="8.8" height="8.8"/>
<rect x="32.7" y="111.3" fill="#3B3B3B" width="8.8" height="8.8"/>
<rect x="59.1" y="111.3" fill="#3B3B3B" width="8.8" height="8.8"/>
<rect x="70" y="111.3" fill="#3B3B3B" width="8.8" height="8.8"/>
<rect x="80.9" y="111.3" fill="#3B3B3B" width="8.8" height="8.8"/>
<rect x="91.8" y="111.3" fill="#3B3B3B" width="8.8" height="8.8"/>
<rect x="118.1" y="111.3" fill="#3B3B3B" width="8.8" height="8.8"/>
<rect x="129.1" y="111.3" fill="#3B3B3B" width="8.8" height="8.8"/>
<rect x="140" y="111.3" fill="#3B3B3B" width="8.8" height="8.8"/>
<rect x="150.9" y="111.3" fill="#3B3B3B" width="8.8" height="8.8"/>
<rect y="128.8" fill="#3B3B3B" width="8.8" height="8.8"/>
<rect x="10.9" y="128.8" fill="#3B3B3B" width="8.8" height="8.8"/>
<rect x="21.8" y="128.8" fill="#3B3B3B" width="8.8" height="8.8"/>
<rect x="32.7" y="128.8" fill="#3B3B3B" width="8.8" height="8.8"/>
<rect x="59.1" y="128.8" fill="#3B3B3B" width="8.8" height="8.8"/>
<rect x="70" y="128.8" fill="#3B3B3B" width="8.8" height="8.8"/>
<rect x="80.9" y="128.8" fill="#3B3B3B" width="8.8" height="8.8"/>
<rect x="91.8" y="128.8" fill="#3B3B3B" width="8.8" height="8.8"/>
<rect x="118.1" y="128.8" fill="#3B3B3B" width="8.8" height="8.8"/>
<rect x="129.1" y="128.8" fill="#3B3B3B" width="8.8" height="8.8"/>
<rect x="140" y="128.8" fill="#3B3B3B" width="8.8" height="8.8"/>
<rect x="150.9" y="128.8" fill="#3B3B3B" width="8.8" height="8.8"/>
</svg>
