<?xml version="1.0" encoding="utf-8"?>
<!-- Generator: Adobe Illustrator 15.1.0, SVG Export Plug-In . SVG Version: 6.00 Build 0)  -->
<!DOCTYPE svg PUBLIC "-//W3C//DTD SVG 1.1//EN" "http://www.w3.org/Graphics/SVG/1.1/DTD/svg11.dtd">
<svg version="1.1" id="Layer_1" xmlns="http://www.w3.org/2000/svg" xmlns:xlink="http://www.w3.org/1999/xlink" x="0px" y="0px"
	 width="134.4px" height="99.5px" viewBox="0 0 134.4 99.5" enable-background="new 0 0 134.4 99.5" xml:space="preserve">
<rect x="27.6" y="10.2" fill="#1C99AD" width="38.8" height="16"/>
<rect x="67.9" y="10.2" fill="#1C99AD" width="38.8" height="16"/>
<rect x="108.2" y="10.2" fill="#1C99AD" width="16" height="38.8"/>
<rect x="108.2" y="50.5" fill="#1C99AD" width="16" height="38.8"/>
<rect x="67.9" y="73.3" fill="#1C99AD" width="38.8" height="16"/>
<rect x="27.6" y="73.3" fill="#1C99AD" width="38.8" height="16"/>
<rect x="10.2" y="50.5" fill="#1C99AD" width="16" height="38.8"/>
<rect x="10.2" y="10.2" fill="#1C99AD" width="16" height="38.8"/>
<rect x="13.8" fill="#3B3B3B" width="8.8" height="8.8"/>
<rect x="111.8" fill="#3B3B3B" width="8.8" height="8.8"/>
<rect x="27.8" fill="#3B3B3B" width="8.8" height="8.8"/>
<rect x="41.8" fill="#3B3B3B" width="8.8" height="8.8"/>
<rect x="55.8" fill="#3B3B3B" width="8.8" height="8.8"/>
<rect x="69.8" fill="#3B3B3B" width="8.8" height="8.8"/>
<rect x="83.8" fill="#3B3B3B" width="8.8" height="8.8"/>
<rect x="97.8" fill="#3B3B3B" width="8.8" height="8.8"/>
<rect y="76.2" fill="#3B3B3B" width="8.8" height="8.8"/>
<rect y="63.8" fill="#3B3B3B" width="8.8" height="8.8"/>
<rect y="51.4" fill="#3B3B3B" width="8.8" height="8.8"/>
<rect y="39" fill="#3B3B3B" width="8.8" height="8.8"/>
<rect y="26.6" fill="#3B3B3B" width="8.8" height="8.8"/>
<rect y="14.1" fill="#3B3B3B" width="8.8" height="8.8"/>
<rect x="125.6" y="76.2" fill="#3B3B3B" width="8.8" height="8.8"/>
<rect x="125.6" y="63.8" fill="#3B3B3B" width="8.8" height="8.8"/>
<rect x="125.6" y="51.4" fill="#3B3B3B" width="8.8" height="8.8"/>
<rect x="125.6" y="39" fill="#3B3B3B" width="8.8" height="8.8"/>
<rect x="125.6" y="26.6" fill="#3B3B3B" width="8.8" height="8.8"/>
<rect x="125.6" y="14.1" fill="#3B3B3B" width="8.8" height="8.8"/>
<rect x="13.8" y="90.7" fill="#3B3B3B" width="8.8" height="8.8"/>
<rect x="111.8" y="90.7" fill="#3B3B3B" width="8.8" height="8.8"/>
<rect x="27.8" y="90.7" fill="#3B3B3B" width="8.8" height="8.8"/>
<rect x="41.8" y="90.7" fill="#3B3B3B" width="8.8" height="8.8"/>
<rect x="55.8" y="90.7" fill="#3B3B3B" width="8.8" height="8.8"/>
<rect x="69.8" y="90.7" fill="#3B3B3B" width="8.8" height="8.8"/>
<rect x="83.8" y="90.7" fill="#3B3B3B" width="8.8" height="8.8"/>
<rect x="97.8" y="90.7" fill="#3B3B3B" width="8.8" height="8.8"/>
</svg>
