<?xml version="1.0" encoding="utf-8"?>
<!-- Generator: Adobe Illustrator 15.1.0, SVG Export Plug-In . SVG Version: 6.00 Build 0)  -->
<!DOCTYPE svg PUBLIC "-//W3C//DTD SVG 1.1//EN" "http://www.w3.org/Graphics/SVG/1.1/DTD/svg11.dtd">
<svg version="1.1" id="Layer_1" xmlns="http://www.w3.org/2000/svg" xmlns:xlink="http://www.w3.org/1999/xlink" x="0px" y="0px"
	 width="99.6px" height="71.9px" viewBox="0 0 99.6 71.9" enable-background="new 0 0 99.6 71.9" xml:space="preserve">
<rect x="45.4" y="63.1" fill="#3B3B3B" width="8.7" height="8.8"/>
<rect x="45.4" y="0" fill="#3B3B3B" width="8.7" height="8.8"/>
<rect y="17.7" fill="#3B3B3B" width="8.8" height="8.8"/>
<rect x="90.9" y="17.7" fill="#3B3B3B" width="8.8" height="8.8"/>
<rect x="57.2" y="61.6" transform="matrix(-0.2587 -0.966 0.966 -0.2587 13.7956 142.4621)" fill="#3B3B3B" width="8.8" height="8.8"/>
<rect x="1.5" y="29.4" transform="matrix(-0.2588 -0.9659 0.9659 -0.2588 -25.2061 48.2856)" fill="#3B3B3B" width="8.8" height="8.8"/>
<rect x="68.1" y="57" transform="matrix(-0.5 -0.866 0.866 -0.5 55.6022 154.9016)" fill="#3B3B3B" width="8.8" height="8.8"/>
<rect x="6.1" y="40.4" transform="matrix(-0.866 0.5 -0.5 -0.866 41.9058 78.3129)" fill="#3B3B3B" width="8.8" height="8.8"/>
<rect x="77.6" y="49.8" transform="matrix(-0.7071 -0.7072 0.7072 -0.7071 101.5413 150.4229)" fill="#3B3B3B" width="8.7" height="8.7"/>
<rect x="13.3" y="49.8" transform="matrix(-0.7071 0.7071 -0.7071 -0.7071 68.4946 79.9864)" fill="#3B3B3B" width="8.8" height="8.8"/>
<rect x="84.8" y="40.4" transform="matrix(-0.866 -0.5 0.5 -0.866 143.9681 128.1154)" fill="#3B3B3B" width="8.8" height="8.8"/>
<rect x="22.7" y="57" transform="matrix(-0.5 0.866 -0.866 -0.5 93.8075 68.6356)" fill="#3B3B3B" width="8.8" height="8.8"/>
<rect x="89.3" y="29.4" transform="matrix(-0.966 -0.2587 0.2587 -0.966 175.4337 90.7151)" fill="#3B3B3B" width="8.8" height="8.7"/>
<rect x="33.7" y="61.6" transform="matrix(-0.9659 -0.2589 0.2589 -0.9659 57.7225 139.4762)" fill="#3B3B3B" width="8.8" height="8.8"/>
</svg>
