<?xml version="1.0" encoding="utf-8"?>
<!-- Generator: Adobe Illustrator 15.1.0, SVG Export Plug-In . SVG Version: 6.00 Build 0)  -->
<!DOCTYPE svg PUBLIC "-//W3C//DTD SVG 1.1//EN" "http://www.w3.org/Graphics/SVG/1.1/DTD/svg11.dtd">
<svg version="1.1" id="Layer_1" xmlns="http://www.w3.org/2000/svg" xmlns:xlink="http://www.w3.org/1999/xlink" x="0px" y="0px"
	 width="176.5px" height="148.6px" viewBox="0 0 176.5 148.6" enable-background="new 0 0 176.5 148.6" xml:space="preserve">
<rect x="68.9" y="10.2" fill="#1C99AD" width="38.8" height="16"/>
<rect x="83.9" y="0" fill="#3B3B3B" width="8.7" height="8.8"/>
<rect y="40.8" fill="#1C99AD" width="38.8" height="16"/>
<rect x="25.9" y="58.2" fill="#3B3B3B" width="8.8" height="8.8"/>
<rect x="15" y="58.2" fill="#3B3B3B" width="8.8" height="8.8"/>
<rect x="4.1" y="58.2" fill="#3B3B3B" width="8.8" height="8.8"/>
<rect x="41.7" y="40.8" fill="#1C99AD" width="38.8" height="16"/>
<rect x="67.7" y="58.2" fill="#3B3B3B" width="8.8" height="8.8"/>
<rect x="56.7" y="58.2" fill="#3B3B3B" width="8.8" height="8.8"/>
<rect x="45.8" y="58.2" fill="#3B3B3B" width="8.8" height="8.8"/>
<rect x="96" y="40.8" fill="#1C99AD" width="38.8" height="16"/>
<rect x="121.9" y="58.2" fill="#3B3B3B" width="8.8" height="8.8"/>
<rect x="111" y="58.2" fill="#3B3B3B" width="8.8" height="8.8"/>
<rect x="100.1" y="58.2" fill="#3B3B3B" width="8.8" height="8.8"/>
<rect x="137.7" y="40.8" fill="#1C99AD" width="38.8" height="16"/>
<rect x="163.7" y="58.2" fill="#3B3B3B" width="8.8" height="8.8"/>
<rect x="152.7" y="58.2" fill="#3B3B3B" width="8.8" height="8.8"/>
<rect x="141.8" y="58.2" fill="#3B3B3B" width="8.8" height="8.8"/>
<rect y="81.8" fill="#1C99AD" width="38.8" height="16"/>
<rect x="25.9" y="99.3" fill="#3B3B3B" width="8.8" height="8.8"/>
<rect x="15" y="99.3" fill="#3B3B3B" width="8.8" height="8.8"/>
<rect x="4.1" y="99.3" fill="#3B3B3B" width="8.8" height="8.8"/>
<rect x="41.7" y="81.8" fill="#1C99AD" width="38.8" height="16"/>
<rect x="67.7" y="99.3" fill="#3B3B3B" width="8.8" height="8.8"/>
<rect x="56.7" y="99.3" fill="#3B3B3B" width="8.8" height="8.8"/>
<rect x="45.8" y="99.3" fill="#3B3B3B" width="8.8" height="8.8"/>
<rect x="96" y="81.8" fill="#1C99AD" width="38.8" height="16"/>
<rect x="121.9" y="99.3" fill="#3B3B3B" width="8.8" height="8.8"/>
<rect x="111" y="99.3" fill="#3B3B3B" width="8.8" height="8.8"/>
<rect x="100.1" y="99.3" fill="#3B3B3B" width="8.8" height="8.8"/>
<rect x="137.7" y="81.8" fill="#1C99AD" width="38.8" height="16"/>
<rect x="163.7" y="99.3" fill="#3B3B3B" width="8.8" height="8.8"/>
<rect x="152.7" y="99.3" fill="#3B3B3B" width="8.8" height="8.8"/>
<rect x="141.8" y="99.3" fill="#3B3B3B" width="8.8" height="8.8"/>
<rect y="122.4" fill="#1C99AD" width="38.8" height="16"/>
<rect x="25.9" y="139.8" fill="#3B3B3B" width="8.8" height="8.8"/>
<rect x="15" y="139.8" fill="#3B3B3B" width="8.8" height="8.8"/>
<rect x="4.1" y="139.8" fill="#3B3B3B" width="8.8" height="8.8"/>
<rect x="41.7" y="122.4" fill="#1C99AD" width="38.8" height="16"/>
<rect x="67.7" y="139.8" fill="#3B3B3B" width="8.8" height="8.8"/>
<rect x="56.7" y="139.8" fill="#3B3B3B" width="8.8" height="8.8"/>
<rect x="45.8" y="139.8" fill="#3B3B3B" width="8.8" height="8.8"/>
<rect x="96" y="122.4" fill="#1C99AD" width="38.8" height="16"/>
<rect x="121.9" y="139.8" fill="#3B3B3B" width="8.8" height="8.8"/>
<rect x="111" y="139.8" fill="#3B3B3B" width="8.8" height="8.8"/>
<rect x="100.1" y="139.8" fill="#3B3B3B" width="8.8" height="8.8"/>
<rect x="137.7" y="122.4" fill="#1C99AD" width="38.8" height="16"/>
<rect x="163.7" y="139.8" fill="#3B3B3B" width="8.8" height="8.8"/>
<rect x="152.7" y="139.8" fill="#3B3B3B" width="8.8" height="8.8"/>
<rect x="141.8" y="139.8" fill="#3B3B3B" width="8.8" height="8.8"/>
</svg>
