<?xml version="1.0" encoding="utf-8"?>
<!-- Generator: Adobe Illustrator 15.1.0, SVG Export Plug-In . SVG Version: 6.00 Build 0)  -->
<!DOCTYPE svg PUBLIC "-//W3C//DTD SVG 1.1//EN" "http://www.w3.org/Graphics/SVG/1.1/DTD/svg11.dtd">
<svg version="1.1" id="Layer_1" xmlns="http://www.w3.org/2000/svg" xmlns:xlink="http://www.w3.org/1999/xlink" x="0px" y="0px"
	 width="99.6px" height="99.6px" viewBox="0 0 99.6 99.6" enable-background="new 0 0 99.6 99.6" xml:space="preserve">
<rect x="45.4" y="0" fill="#3B3B3B" width="8.7" height="8.8"/>
<rect x="45.4" y="90.9" fill="#3B3B3B" width="8.7" height="8.8"/>
<rect y="45.4" fill="#3B3B3B" width="8.8" height="8.8"/>
<rect x="90.9" y="45.4" fill="#3B3B3B" width="8.8" height="8.8"/>
<rect x="33.7" y="1.5" transform="matrix(-0.2588 -0.9659 0.9659 -0.2588 42.1692 44.2059)" fill="#3B3B3B" width="8.8" height="8.7"/>
<rect x="57.2" y="89.3" transform="matrix(-0.2587 -0.966 0.966 -0.2587 -13.0078 177.3886)" fill="#3B3B3B" width="8.8" height="8.8"/>
<rect x="1.5" y="57.2" transform="matrix(-0.2588 -0.9659 0.9659 -0.2588 -52.0088 83.2158)" fill="#3B3B3B" width="8.8" height="8.8"/>
<rect x="89.3" y="33.7" transform="matrix(-0.2588 -0.9659 0.9659 -0.2588 81.184 138.3862)" fill="#3B3B3B" width="8.7" height="8.8"/>
<rect x="22.7" y="6.1" transform="matrix(-0.5 -0.866 0.866 -0.5 31.5735 39.1523)" fill="#3B3B3B" width="8.8" height="8.8"/>
<rect x="68.1" y="84.8" transform="matrix(-0.5 -0.866 0.866 -0.5 31.5714 196.5232)" fill="#3B3B3B" width="8.8" height="8.8"/>
<rect x="6.1" y="68.1" transform="matrix(-0.866 0.5 -0.5 -0.866 55.7792 130.0918)" fill="#3B3B3B" width="8.8" height="8.8"/>
<rect x="84.8" y="22.7" transform="matrix(-0.866 0.5 -0.5 -0.866 179.8968 5.9787)" fill="#3B3B3B" width="8.8" height="8.8"/>
<rect x="13.3" y="13.3" transform="matrix(-0.7071 -0.7071 0.7071 -0.7071 17.6807 42.6849)" fill="#3B3B3B" width="8.7" height="8.7"/>
<rect x="77.6" y="77.6" transform="matrix(-0.7071 -0.7072 0.7072 -0.7071 81.9189 197.7902)" fill="#3B3B3B" width="8.7" height="8.7"/>
<rect x="13.3" y="77.6" transform="matrix(-0.7071 0.7071 -0.7071 -0.7071 88.1162 127.3545)" fill="#3B3B3B" width="8.8" height="8.8"/>
<rect x="77.6" y="13.3" transform="matrix(-0.7072 0.7071 -0.7071 -0.7072 152.3643 -27.743)" fill="#3B3B3B" width="8.7" height="8.7"/>
<rect x="6.1" y="22.7" transform="matrix(-0.866 -0.5 0.5 -0.866 5.977 55.7812)" fill="#3B3B3B" width="8.8" height="8.8"/>
<rect x="84.8" y="68.1" transform="matrix(-0.866 -0.5 0.5 -0.866 130.0946 179.8943)" fill="#3B3B3B" width="8.8" height="8.8"/>
<rect x="22.7" y="84.8" transform="matrix(-0.5 0.866 -0.866 -0.5 117.8384 110.2571)" fill="#3B3B3B" width="8.8" height="8.8"/>
<rect x="68.1" y="6.1" transform="matrix(-0.5 0.866 -0.866 -0.5 117.8378 -47.1109)" fill="#3B3B3B" width="8.7" height="8.8"/>
<rect x="1.5" y="33.7" transform="matrix(-0.966 -0.2587 0.2587 -0.966 1.8007 76.3302)" fill="#3B3B3B" width="8.7" height="8.7"/>
<rect x="89.3" y="57.2" transform="matrix(-0.966 -0.2587 0.2587 -0.966 168.2552 145.2661)" fill="#3B3B3B" width="8.8" height="8.7"/>
<rect x="33.7" y="89.3" transform="matrix(-0.9659 -0.2589 0.2589 -0.9659 50.5382 194.0261)" fill="#3B3B3B" width="8.8" height="8.8"/>
<rect x="57.2" y="1.5" transform="matrix(-0.9659 -0.2589 0.2589 -0.9659 119.4925 27.5793)" fill="#3B3B3B" width="8.8" height="8.8"/>
</svg>
