<?xml version="1.0" encoding="utf-8"?>
<!-- Generator: Adobe Illustrator 15.1.0, SVG Export Plug-In . SVG Version: 6.00 Build 0)  -->
<!DOCTYPE svg PUBLIC "-//W3C//DTD SVG 1.1//EN" "http://www.w3.org/Graphics/SVG/1.1/DTD/svg11.dtd">
<svg version="1.1" id="Layer_1" xmlns="http://www.w3.org/2000/svg" xmlns:xlink="http://www.w3.org/1999/xlink" x="0px" y="0px"
	 width="168.6px" height="143.5px" viewBox="0 0 168.6 143.5" enable-background="new 0 0 168.6 143.5" xml:space="preserve">
<rect x="76.3" y="68.6" fill="#1C99AD" width="16" height="38.8"/>
<g>
	<defs>
		<rect id="SVGID_1_" width="168.6" height="143.5"/>
	</defs>
	<clipPath id="SVGID_2_">
		<use xlink:href="#SVGID_1_"  overflow="visible"/>
	</clipPath>
	<path clip-path="url(#SVGID_2_)" fill="#3B3B3B" d="M73.9,83.1h-6.8c-0.6,0-1-0.4-1-1v-6.8c0-0.6,0.4-1,1-1h6.8c0.6,0,1,0.4,1,1
		v6.8C74.9,82.7,74.4,83.1,73.9,83.1"/>
	<path clip-path="url(#SVGID_2_)" fill="#3B3B3B" d="M73.9,101.7h-6.8c-0.6,0-1-0.4-1-1V94c0-0.6,0.4-1,1-1h6.8c0.6,0,1,0.4,1,1v6.8
		C74.9,101.3,74.4,101.7,73.9,101.7"/>
	<path clip-path="url(#SVGID_2_)" fill="#3B3B3B" d="M101.5,83.1h-6.8c-0.6,0-1-0.4-1-1v-6.8c0-0.6,0.4-1,1-1h6.8c0.6,0,1,0.4,1,1
		v6.8C102.5,82.7,102.1,83.1,101.5,83.1"/>
	<path clip-path="url(#SVGID_2_)" fill="#3B3B3B" d="M101.5,101.7h-6.8c-0.6,0-1-0.4-1-1V94c0-0.6,0.4-1,1-1h6.8c0.6,0,1,0.4,1,1
		v6.8C102.5,101.3,102.1,101.7,101.5,101.7"/>
	<path clip-path="url(#SVGID_2_)" fill="#3B3B3B" d="M87.7,117.7h-6.7c-0.6,0-1-0.4-1-1v-6.8c0-0.6,0.4-1,1-1h6.7c0.6,0,1,0.4,1,1
		v6.8C88.7,117.2,88.2,117.7,87.7,117.7"/>
	<rect x="64.9" y="10.2" clip-path="url(#SVGID_2_)" fill="#1C99AD" width="38.8" height="16"/>
	<path clip-path="url(#SVGID_2_)" fill="#3B3B3B" d="M88.7,1v6.8c0,0.6-0.4,1-1,1h-6.7c-0.6,0-1-0.4-1-1V1c0-0.6,0.4-1,1-1h6.7
		C88.2,0,88.7,0.4,88.7,1"/>
	
		<rect x="137" y="35.3" transform="matrix(0.7071 -0.7071 0.7071 0.7071 3.8011 118.5818)" clip-path="url(#SVGID_2_)" fill="#1C99AD" width="16" height="38.8"/>
	<path clip-path="url(#SVGID_2_)" fill="#3B3B3B" d="M134.2,58.6l-4.8,4.8c-0.4,0.4-1,0.4-1.4,0l-4.8-4.8c-0.4-0.4-0.4-1,0-1.4
		l4.8-4.8c0.4-0.4,1-0.4,1.4,0l4.8,4.8C134.5,57.6,134.5,58.2,134.2,58.6"/>
	<path clip-path="url(#SVGID_2_)" fill="#3B3B3B" d="M147.3,71.8l-4.8,4.8c-0.4,0.4-1,0.4-1.4,0l-4.8-4.8c-0.4-0.4-0.4-1,0-1.4
		l4.8-4.8c0.4-0.4,1-0.4,1.4,0l4.8,4.8C147.7,70.7,147.7,71.4,147.3,71.8"/>
	<path clip-path="url(#SVGID_2_)" fill="#3B3B3B" d="M153.7,39.1l-4.8,4.8c-0.4,0.4-1,0.4-1.4,0l-4.8-4.8c-0.4-0.4-0.4-1,0-1.4
		l4.8-4.8c0.4-0.4,1-0.4,1.4,0l4.8,4.8C154.1,38,154.1,38.7,153.7,39.1"/>
	<path clip-path="url(#SVGID_2_)" fill="#3B3B3B" d="M166.9,52.2l-4.8,4.8c-0.4,0.4-1,0.4-1.4,0l-4.8-4.8c-0.4-0.4-0.4-1,0-1.4
		l4.8-4.8c0.4-0.4,1-0.4,1.4,0l4.8,4.8C167.3,51.2,167.3,51.8,166.9,52.2"/>
	<path clip-path="url(#SVGID_2_)" fill="#3B3B3B" d="M168.4,73.2l-4.8,4.8c-0.4,0.4-1,0.4-1.4,0l-4.8-4.8c-0.4-0.4-0.4-1,0-1.4
		l4.8-4.8c0.4-0.4,1-0.4,1.4,0l4.8,4.8C168.7,72.2,168.7,72.9,168.4,73.2"/>
	
		<rect x="137" y="100.5" transform="matrix(0.7071 -0.7071 0.7071 0.7071 -42.3133 137.6758)" clip-path="url(#SVGID_2_)" fill="#1C99AD" width="16" height="38.8"/>
	<path clip-path="url(#SVGID_2_)" fill="#3B3B3B" d="M134.2,123.8l-4.8,4.8c-0.4,0.4-1,0.4-1.4,0l-4.8-4.8c-0.4-0.4-0.4-1,0-1.4
		l4.8-4.8c0.4-0.4,1-0.4,1.4,0l4.8,4.8C134.5,122.8,134.5,123.4,134.2,123.8"/>
	<path clip-path="url(#SVGID_2_)" fill="#3B3B3B" d="M147.3,137l-4.8,4.8c-0.4,0.4-1,0.4-1.4,0l-4.8-4.8c-0.4-0.4-0.4-1,0-1.4
		l4.8-4.8c0.4-0.4,1-0.4,1.4,0l4.8,4.8C147.7,136,147.7,136.6,147.3,137"/>
	<path clip-path="url(#SVGID_2_)" fill="#3B3B3B" d="M153.7,104.3l-4.8,4.8c-0.4,0.4-1,0.4-1.4,0l-4.8-4.8c-0.4-0.4-0.4-1,0-1.4
		l4.8-4.8c0.4-0.4,1-0.4,1.4,0l4.8,4.8C154.1,103.2,154.1,103.9,153.7,104.3"/>
	<path clip-path="url(#SVGID_2_)" fill="#3B3B3B" d="M166.9,117.4l-4.8,4.8c-0.4,0.4-1,0.4-1.4,0l-4.8-4.8c-0.4-0.4-0.4-1,0-1.4
		l4.8-4.8c0.4-0.4,1-0.4,1.4,0l4.8,4.8C167.3,116.4,167.3,117.1,166.9,117.4"/>
	<path clip-path="url(#SVGID_2_)" fill="#3B3B3B" d="M168.4,138.5l-4.8,4.8c-0.4,0.4-1,0.4-1.4,0l-4.8-4.8c-0.4-0.4-0.4-1,0-1.4
		l4.8-4.8c0.4-0.4,1-0.4,1.4,0l4.8,4.8C168.7,137.4,168.7,138.1,168.4,138.5"/>
	
		<rect x="15.6" y="35.3" transform="matrix(-0.7071 -0.7071 0.7071 -0.7071 1.6272 110.0798)" clip-path="url(#SVGID_2_)" fill="#1C99AD" width="16" height="38.8"/>
	<path clip-path="url(#SVGID_2_)" fill="#3B3B3B" d="M34.5,58.6l4.8,4.8c0.4,0.4,1,0.4,1.4,0l4.8-4.8c0.4-0.4,0.4-1,0-1.4l-4.8-4.8
		c-0.4-0.4-1-0.4-1.4,0l-4.8,4.8C34.1,57.6,34.1,58.2,34.5,58.6"/>
	<path clip-path="url(#SVGID_2_)" fill="#3B3B3B" d="M21.3,71.8l4.8,4.8c0.4,0.4,1,0.4,1.4,0l4.8-4.8c0.4-0.4,0.4-1,0-1.4l-4.8-4.8
		c-0.4-0.4-1-0.4-1.4,0l-4.8,4.8C20.9,70.7,20.9,71.4,21.3,71.8"/>
	<path clip-path="url(#SVGID_2_)" fill="#3B3B3B" d="M15,39.1l4.8,4.8c0.4,0.4,1,0.4,1.4,0l4.8-4.8c0.4-0.4,0.4-1,0-1.4l-4.8-4.8
		c-0.4-0.4-1-0.4-1.4,0L15,37.6C14.6,38,14.6,38.7,15,39.1"/>
	<path clip-path="url(#SVGID_2_)" fill="#3B3B3B" d="M1.8,52.2L6.5,57c0.4,0.4,1,0.4,1.4,0l4.8-4.8c0.4-0.4,0.4-1,0-1.4L8,46
		c-0.4-0.4-1-0.4-1.4,0l-4.8,4.8C1.4,51.2,1.4,51.8,1.8,52.2"/>
	<path clip-path="url(#SVGID_2_)" fill="#3B3B3B" d="M0.3,73.2L5.1,78c0.4,0.4,1,0.4,1.4,0l4.8-4.8c0.4-0.4,0.4-1,0-1.4l-4.8-4.8
		c-0.4-0.4-1-0.4-1.4,0l-4.8,4.8C-0.1,72.2-0.1,72.9,0.3,73.2"/>
	
		<rect x="15.6" y="100.5" transform="matrix(-0.7071 -0.7071 0.7071 -0.7071 -44.4811 221.405)" clip-path="url(#SVGID_2_)" fill="#1C99AD" width="16" height="38.8"/>
	<path clip-path="url(#SVGID_2_)" fill="#3B3B3B" d="M34.5,123.8l4.8,4.8c0.4,0.4,1,0.4,1.4,0l4.8-4.8c0.4-0.4,0.4-1,0-1.4l-4.8-4.8
		c-0.4-0.4-1-0.4-1.4,0l-4.8,4.8C34.1,122.8,34.1,123.4,34.5,123.8"/>
	<path clip-path="url(#SVGID_2_)" fill="#3B3B3B" d="M21.3,137l4.8,4.8c0.4,0.4,1,0.4,1.4,0l4.8-4.8c0.4-0.4,0.4-1,0-1.4l-4.8-4.8
		c-0.4-0.4-1-0.4-1.4,0l-4.8,4.8C20.9,136,20.9,136.6,21.3,137"/>
	<path clip-path="url(#SVGID_2_)" fill="#3B3B3B" d="M15,104.3l4.8,4.8c0.4,0.4,1,0.4,1.4,0l4.8-4.8c0.4-0.4,0.4-1,0-1.4l-4.8-4.8
		c-0.4-0.4-1-0.4-1.4,0l-4.8,4.8C14.6,103.2,14.6,103.9,15,104.3"/>
	<path clip-path="url(#SVGID_2_)" fill="#3B3B3B" d="M1.8,117.4l4.8,4.8c0.4,0.4,1,0.4,1.4,0l4.8-4.8c0.4-0.4,0.4-1,0-1.4L8,111.3
		c-0.4-0.4-1-0.4-1.4,0L1.8,116C1.4,116.4,1.4,117.1,1.8,117.4"/>
	<path clip-path="url(#SVGID_2_)" fill="#3B3B3B" d="M0.3,138.5l4.8,4.8c0.4,0.4,1,0.4,1.4,0l4.8-4.8c0.4-0.4,0.4-1,0-1.4l-4.8-4.8
		c-0.4-0.4-1-0.4-1.4,0L0.3,137C-0.1,137.4-0.1,138.1,0.3,138.5"/>
</g>
</svg>
