<?xml version="1.0" encoding="utf-8"?>
<!-- Generator: Adobe Illustrator 15.1.0, SVG Export Plug-In . SVG Version: 6.00 Build 0)  -->
<!DOCTYPE svg PUBLIC "-//W3C//DTD SVG 1.1//EN" "http://www.w3.org/Graphics/SVG/1.1/DTD/svg11.dtd">
<svg version="1.1" id="Layer_1" xmlns="http://www.w3.org/2000/svg" xmlns:xlink="http://www.w3.org/1999/xlink" x="0px" y="0px"
	 width="148.2px" height="157.1px" viewBox="0 0 148.2 157.1" enable-background="new 0 0 148.2 157.1" xml:space="preserve">
<rect x="54.7" y="10.2" fill="#1C99AD" width="38.8" height="16"/>
<rect x="69.7" y="0" fill="#3B3B3B" width="8.8" height="8.8"/>
<rect x="10.2" y="37.8" fill="#1C99AD" width="16" height="38.8"/>
<rect y="63.7" fill="#3B3B3B" width="8.8" height="8.8"/>
<rect y="52.8" fill="#3B3B3B" width="8.8" height="8.8"/>
<rect y="41.9" fill="#3B3B3B" width="8.8" height="8.8"/>
<rect x="27.7" y="63.7" fill="#3B3B3B" width="8.8" height="8.8"/>
<rect x="27.7" y="52.8" fill="#3B3B3B" width="8.8" height="8.8"/>
<rect x="27.7" y="41.9" fill="#3B3B3B" width="8.8" height="8.8"/>
<rect x="10.2" y="78" fill="#1C99AD" width="16" height="38.8"/>
<rect y="104" fill="#3B3B3B" width="8.8" height="8.8"/>
<rect y="93.1" fill="#3B3B3B" width="8.8" height="8.8"/>
<rect y="82.2" fill="#3B3B3B" width="8.8" height="8.8"/>
<rect x="27.7" y="104" fill="#3B3B3B" width="8.8" height="8.8"/>
<rect x="27.7" y="93.1" fill="#3B3B3B" width="8.8" height="8.8"/>
<rect x="27.7" y="82.2" fill="#3B3B3B" width="8.8" height="8.8"/>
<rect x="10.2" y="118.3" fill="#1C99AD" width="16" height="38.8"/>
<rect y="144.3" fill="#3B3B3B" width="8.8" height="8.8"/>
<rect y="133.3" fill="#3B3B3B" width="8.8" height="8.8"/>
<rect y="122.4" fill="#3B3B3B" width="8.8" height="8.8"/>
<rect x="27.7" y="144.3" fill="#3B3B3B" width="8.8" height="8.8"/>
<rect x="27.7" y="133.3" fill="#3B3B3B" width="8.8" height="8.8"/>
<rect x="27.7" y="122.4" fill="#3B3B3B" width="8.8" height="8.8"/>
<rect x="66.1" y="37.8" fill="#1C99AD" width="16" height="38.8"/>
<rect x="55.9" y="63.7" fill="#3B3B3B" width="8.8" height="8.8"/>
<rect x="55.9" y="52.8" fill="#3B3B3B" width="8.8" height="8.8"/>
<rect x="55.9" y="41.9" fill="#3B3B3B" width="8.8" height="8.8"/>
<rect x="83.5" y="63.7" fill="#3B3B3B" width="8.8" height="8.8"/>
<rect x="83.5" y="52.8" fill="#3B3B3B" width="8.8" height="8.8"/>
<rect x="83.5" y="41.9" fill="#3B3B3B" width="8.8" height="8.8"/>
<rect x="66.1" y="78" fill="#1C99AD" width="16" height="38.8"/>
<rect x="55.9" y="104" fill="#3B3B3B" width="8.8" height="8.8"/>
<rect x="55.9" y="93.1" fill="#3B3B3B" width="8.8" height="8.8"/>
<rect x="55.9" y="82.2" fill="#3B3B3B" width="8.8" height="8.8"/>
<rect x="83.5" y="104" fill="#3B3B3B" width="8.8" height="8.8"/>
<rect x="83.5" y="93.1" fill="#3B3B3B" width="8.8" height="8.8"/>
<rect x="83.5" y="82.2" fill="#3B3B3B" width="8.8" height="8.8"/>
<rect x="66.1" y="118.3" fill="#1C99AD" width="16" height="38.8"/>
<rect x="55.9" y="144.3" fill="#3B3B3B" width="8.8" height="8.8"/>
<rect x="55.9" y="133.3" fill="#3B3B3B" width="8.8" height="8.8"/>
<rect x="55.9" y="122.4" fill="#3B3B3B" width="8.8" height="8.8"/>
<rect x="83.5" y="144.3" fill="#3B3B3B" width="8.8" height="8.8"/>
<rect x="83.5" y="133.3" fill="#3B3B3B" width="8.8" height="8.8"/>
<rect x="83.5" y="122.4" fill="#3B3B3B" width="8.8" height="8.8"/>
<rect x="121.9" y="37.8" fill="#1C99AD" width="16" height="38.8"/>
<rect x="111.8" y="63.7" fill="#3B3B3B" width="8.8" height="8.8"/>
<rect x="111.8" y="52.8" fill="#3B3B3B" width="8.8" height="8.8"/>
<rect x="111.8" y="41.9" fill="#3B3B3B" width="8.8" height="8.8"/>
<rect x="139.4" y="63.7" fill="#3B3B3B" width="8.8" height="8.8"/>
<rect x="139.4" y="52.8" fill="#3B3B3B" width="8.8" height="8.8"/>
<rect x="139.4" y="41.9" fill="#3B3B3B" width="8.8" height="8.8"/>
<rect x="121.9" y="78" fill="#1C99AD" width="16" height="38.8"/>
<rect x="111.8" y="104" fill="#3B3B3B" width="8.8" height="8.8"/>
<rect x="111.8" y="93.1" fill="#3B3B3B" width="8.8" height="8.8"/>
<rect x="111.8" y="82.2" fill="#3B3B3B" width="8.8" height="8.8"/>
<rect x="139.4" y="104" fill="#3B3B3B" width="8.8" height="8.8"/>
<rect x="139.4" y="93.1" fill="#3B3B3B" width="8.8" height="8.8"/>
<rect x="139.4" y="82.2" fill="#3B3B3B" width="8.8" height="8.8"/>
<rect x="121.9" y="118.3" fill="#1C99AD" width="16" height="38.8"/>
<rect x="111.8" y="144.3" fill="#3B3B3B" width="8.8" height="8.8"/>
<rect x="111.8" y="133.3" fill="#3B3B3B" width="8.8" height="8.8"/>
<rect x="111.8" y="122.4" fill="#3B3B3B" width="8.8" height="8.8"/>
<rect x="139.4" y="144.3" fill="#3B3B3B" width="8.8" height="8.8"/>
<rect x="139.4" y="133.3" fill="#3B3B3B" width="8.8" height="8.8"/>
<rect x="139.4" y="122.4" fill="#3B3B3B" width="8.8" height="8.8"/>
</svg>
